<?xml version="1.0" encoding="UTF-8" standalone="no"?>
<svg
   xmlns:dc="http://purl.org/dc/elements/1.1/"
   xmlns:cc="http://creativecommons.org/ns#"
   xmlns:rdf="http://www.w3.org/1999/02/22-rdf-syntax-ns#"
   xmlns:svg="http://www.w3.org/2000/svg"
   xmlns="http://www.w3.org/2000/svg"
   xmlns:sodipodi="http://sodipodi.sourceforge.net/DTD/sodipodi-0.dtd"
   xmlns:inkscape="http://www.inkscape.org/namespaces/inkscape"
   width="395.05701mm"
   height="444.29648mm"
   viewBox="0 0 395.05701 444.29647"
   version="1.1"
   id="svg4309"
   inkscape:version="1.0.2 (e86c870879, 2021-01-15)"
   sodipodi:docname="spiider.svg">
  <defs
     id="defs4303" />
  <sodipodi:namedview
     id="base"
     pagecolor="#ffffff"
     bordercolor="#666666"
     borderopacity="1.0"
     inkscape:pageopacity="0.0"
     inkscape:pageshadow="2"
     inkscape:zoom="0.24748737"
     inkscape:cx="-744.60898"
     inkscape:cy="1029.8894"
     inkscape:document-units="mm"
     inkscape:current-layer="layer1"
     inkscape:document-rotation="0"
     showgrid="false"
     inkscape:window-width="1920"
     inkscape:window-height="1042"
     inkscape:window-x="0"
     inkscape:window-y="38"
     inkscape:window-maximized="1" />
  <metadata
     id="metadata4306">
    <rdf:RDF>
      <cc:Work
         rdf:about="">
        <dc:format>image/svg+xml</dc:format>
        <dc:type
           rdf:resource="http://purl.org/dc/dcmitype/StillImage" />
        <dc:title></dc:title>
      </cc:Work>
    </rdf:RDF>
  </metadata>
  <g
     inkscape:label="Layer 1"
     inkscape:groupmode="layer"
     id="layer1"
     transform="translate(3.5068178,-31.898859)">
    <path
       id="path1123"
       style="color:#000000;font-style:normal;font-variant:normal;font-weight:normal;font-stretch:normal;font-size:medium;line-height:normal;font-family:sans-serif;font-variant-ligatures:normal;font-variant-position:normal;font-variant-caps:normal;font-variant-numeric:normal;font-variant-alternates:normal;font-variant-east-asian:normal;font-feature-settings:normal;font-variation-settings:normal;text-indent:0;text-align:start;text-decoration:none;text-decoration-line:none;text-decoration-style:solid;text-decoration-color:#000000;letter-spacing:normal;word-spacing:normal;text-transform:none;writing-mode:lr-tb;direction:ltr;text-orientation:mixed;dominant-baseline:auto;baseline-shift:baseline;text-anchor:start;white-space:normal;shape-padding:0;shape-margin:0;inline-size:0;clip-rule:nonzero;display:inline;overflow:visible;visibility:visible;isolation:auto;mix-blend-mode:normal;color-interpolation:sRGB;color-interpolation-filters:linearRGB;solid-color:#000000;solid-opacity:1;vector-effect:none;fill:#c8c8c8;fill-opacity:1;fill-rule:nonzero;stroke:#000000;stroke-width:0.264583;stroke-linecap:butt;stroke-linejoin:miter;stroke-miterlimit:4;stroke-dasharray:none;stroke-dashoffset:0;stroke-opacity:1;color-rendering:auto;image-rendering:auto;shape-rendering:auto;text-rendering:auto;enable-background:accumulate;stop-color:#000000"
       d="m 58.876885,32.250734 c -0.47035,0.0929 -0.12733,1.076391 -0.28258,1.514267 -0.31987,6.13001 -0.63974,12.26002 -0.95961,18.39003 -1.47526,0 -2.95052,0 -4.42578,0 -0.26296,0.281687 -0.25407,0.871992 -0.24872,1.443903 -0.27907,10.699689 -0.55814,21.399377 -0.83722,32.099066 -0.59246,-0.05045 -0.8773,0.171529 -0.81054,0.763672 0,10.01888 0,20.037758 0,30.056638 -1.15235,0 -2.30469,0 -3.45703,0 -0.26155,0.28742 -0.2608,0.83712 -0.23047,1.41641 0,16.04935 0,32.0987 0,48.14805 0.2875,0.27785 0.86784,0.26288 1.45976,0.23632 0.74258,0 1.48516,0 2.22774,0 0,10.19597 0,20.39193 0,30.58789 0.28432,0.26691 0.87031,0.25722 1.44793,0.24507 0.83769,-0.23024 0.93283,0.30758 0.86557,1.01336 0.073,1.38845 0.14193,2.77711 0.21775,4.1654 0.27196,0.24634 0.88214,0.20551 1.43242,0.19336 2.43734,0.0244 4.893,-0.0487 7.31896,0.0363 1.95527,0.76134 3.91054,1.52268 5.8658,2.28402 4.77746,13.22221 9.54884,26.4688 14.33008,39.67579 10.68229,0 21.364595,0 32.046885,0 0.14169,0.51548 0.65516,1.00394 0.55468,1.53711 0.38256,0.24215 1.01156,0.22653 1.55764,0.46802 35.74767,10.74306 73.75548,13.90021 110.78765,9.17977 15.0553,-1.90306 29.94527,-5.0975 44.46331,-9.51303 0.55312,0.18888 0.38728,-0.73884 0.74957,-1.12168 0.079,-0.81502 0.88589,-0.49519 1.45238,-0.55019 10.28142,-0.005 20.58998,0.0106 30.85468,-0.008 4.7745,-13.22227 9.5467,-26.44537 14.32031,-39.66797 2.02258,-0.76136 4.02701,-1.61939 6.06094,-2.32031 2.78502,0 5.57005,0 8.35508,0 0.25777,-0.26403 0.25074,-0.87411 0.26701,-1.42365 0.0686,-1.31126 0.1371,-2.62251 0.20564,-3.93377 0.67904,-0.0123 1.35808,-0.0243 2.03711,-0.0371 0.26021,-0.27754 0.2508,-0.83246 0.22461,-1.39961 0,-9.80364 0,-19.60729 0,-29.41094 1.15169,0 2.30339,0 3.45508,0 0.26857,-0.2908 0.26459,-0.85416 0.23437,-1.44375 10e-6,-16.04088 0,-32.08177 10e-6,-48.12265 -0.29139,-0.27464 -0.87076,-0.26128 -1.46368,-0.23438 -0.74192,0 -1.48385,0 -2.22578,0 0,-10.19531 0,-20.390623 0,-30.585935 -0.26202,-0.275017 -1.0492,-0.05402 -0.82615,-0.834172 -0.28388,-10.907489 -0.56762,-21.814982 -0.85158,-32.722469 -0.27997,-0.268741 -0.8729,-0.240706 -1.44805,-0.220703 -1.06549,0 -2.13099,0 -3.19648,0 -0.34573,-6.637368 -0.69124,-13.274748 -1.03711,-19.912109 -0.27262,-0.257008 -0.87994,-0.212899 -1.43438,-0.201172 -89.68593,0 -179.37186,0 -269.057805,0 0,0.06966 0,0.139323 0,0.208984 z" />
    <path
       id="path703"
       style="color:#000000;font-style:normal;font-variant:normal;font-weight:normal;font-stretch:normal;font-size:medium;line-height:normal;font-family:sans-serif;font-variant-ligatures:normal;font-variant-position:normal;font-variant-caps:normal;font-variant-numeric:normal;font-variant-alternates:normal;font-variant-east-asian:normal;font-feature-settings:normal;font-variation-settings:normal;text-indent:0;text-align:start;text-decoration:none;text-decoration-line:none;text-decoration-style:solid;text-decoration-color:#000000;letter-spacing:normal;word-spacing:normal;text-transform:none;writing-mode:lr-tb;direction:ltr;text-orientation:mixed;dominant-baseline:auto;baseline-shift:baseline;text-anchor:start;white-space:normal;shape-padding:0;shape-margin:0;inline-size:0;clip-rule:nonzero;display:inline;overflow:visible;visibility:visible;isolation:auto;mix-blend-mode:normal;color-interpolation:sRGB;color-interpolation-filters:linearRGB;solid-color:#000000;solid-opacity:1;vector-effect:none;fill:#c8c8c8;fill-opacity:1;fill-rule:nonzero;stroke:#000000;stroke-width:0.264583;stroke-linecap:butt;stroke-linejoin:miter;stroke-miterlimit:4;stroke-dasharray:none;stroke-dashoffset:0;stroke-opacity:1;color-rendering:auto;image-rendering:auto;shape-rendering:auto;text-rendering:auto;enable-background:accumulate;stop-color:#000000"
       d="m 42.854955,85.932375 c -0.48779,-0.0078 -0.90783,0.240576 -1.46994,0.281681 -5.97289,1.135317 -11.94598,2.271046 -17.91873,3.407772 -0.49668,-0.201033 -0.6235,0.541692 -1.08243,0.836336 -3.16755,3.163166 -6.33971,6.325241 -9.50937,9.489836 -0.53857,0.12577 -0.17683,0.86772 -0.39863,1.40094 -11.96558993,76.06274 -17.1775599,153.18368 -15.5642599,230.16742 -0.0843,0.38324 0.78839,0.57109 1.07763,0.94658 18.7475599,13.83746 37.4951199,27.67493 56.2426799,41.5124 0.21181,0.50256 0.87909,0.0323 1.43711,0.16993 35.9181,0 71.836205,0 107.754305,0 0,5.73828 0,11.47656 0,17.21484 0.42898,0.14654 0.62622,0.52482 1.37695,0.34961 19.82422,0 39.64844,0 59.47266,0 0.14566,-0.42986 0.52206,-0.62898 0.34766,-1.37891 0,-5.39518 0,-10.79036 0,-16.18554 36.21549,0 72.43099,0 108.64647,0 0.46404,0.30152 0.74128,-0.4884 1.26906,-0.70827 18.82182,-13.89081 37.64329,-27.78207 56.46532,-41.67259 0.33825,-0.17878 0.0355,-1.04143 0.15504,-1.52327 1.54073,-76.85918 -3.73259,-153.85023 -15.72731,-229.78142 0.21891,-0.506787 -0.59773,-0.65595 -0.89685,-1.147426 -3.14602,-3.136357 -6.28981,-6.276473 -9.43323,-9.413122 -0.12272,-0.536082 -0.87896,-0.211545 -1.40953,-0.447484 -6.01813,-1.141779 -12.03534,-2.290536 -18.05336,-3.431422 -0.44278,-0.235845 -1.0363,-0.06671 -1.59453,-0.08789 -1.77969,0 -3.55937,0 -5.33906,0 -0.12345,0.431501 -0.52612,0.583774 -0.34961,1.315234 0,56.45417 0,112.90833 0,169.3625 -21.02669,14.62174 -42.05338,29.24349 -63.08007,43.86523 -54.16862,0 -108.33724,0 -162.50586,0 C 91.740365,285.8523 70.713675,271.22925 49.686985,256.6062 c 0,-56.77474 0,-113.54948 0,-170.324216 -0.42713,-0.147739 -0.62533,-0.52441 -1.375,-0.349609 -1.66992,0 -3.33985,0 -5.00977,0 0.028,-0.197271 -0.34879,0.02763 -0.44726,0 z" />
    <path
       style="color:#000000;font-style:normal;font-variant:normal;font-weight:normal;font-stretch:normal;font-size:medium;line-height:normal;font-family:sans-serif;font-variant-ligatures:normal;font-variant-position:normal;font-variant-caps:normal;font-variant-numeric:normal;font-variant-alternates:normal;font-variant-east-asian:normal;font-feature-settings:normal;font-variation-settings:normal;text-indent:0;text-align:start;text-decoration:none;text-decoration-line:none;text-decoration-style:solid;text-decoration-color:#000000;letter-spacing:normal;word-spacing:normal;text-transform:none;writing-mode:lr-tb;direction:ltr;text-orientation:mixed;dominant-baseline:auto;baseline-shift:baseline;text-anchor:start;white-space:normal;shape-padding:0;shape-margin:0;inline-size:0;clip-rule:nonzero;display:inline;overflow:visible;visibility:visible;isolation:auto;mix-blend-mode:normal;color-interpolation:sRGB;color-interpolation-filters:linearRGB;solid-color:#000000;solid-opacity:1;vector-effect:none;fill:#c8c8c8;fill-opacity:1;fill-rule:nonzero;stroke:#000004;stroke-width:0.264585;stroke-linecap:butt;stroke-linejoin:miter;stroke-miterlimit:4;stroke-dasharray:none;stroke-dashoffset:0;stroke-opacity:1;color-rendering:auto;image-rendering:auto;shape-rendering:auto;text-rendering:auto;enable-background:accumulate;stop-color:#000000"
       d="m 171.21572,378.32729 v 0.1744 h -0.17576 v 3.58098 h -67.78533 -2.96618 -52.170525 v 0.1744 l -0.0947,-0.14727 -0.80375,0.49801 -0.79388,0.49412 -0.78597,0.48638 -0.77808,0.48251 -0.76623,0.47669 -0.7603,0.47087 -0.74845,0.46507 -0.74056,0.45925 -0.73265,0.45343 -0.72081,0.44762 -0.7129,0.44181 -0.70303,0.43599 -0.69317,0.43212 -0.68525,0.42438 0.0947,0.14726 -0.14218,-0.10464 c -0.88957,1.18394 -1.70664,2.44275 -2.45272,3.8019 l 0.008,0.004 c -0.008,0.0142 -0.0179,0.0246 -0.0257,0.0388 l -0.004,-0.002 c -0.005,0.009 -0.009,0.0202 -0.0139,0.0291 -0.007,0.0125 -0.0149,0.0223 -0.0218,0.0349 -0.14719,0.27105 -0.25287,0.61428 -0.39496,0.89524 -0.55653,1.09898 -1.10723,2.20101 -1.568,3.48605 l 0.0236,0.008 c -0.0393,0.10934 -0.0958,0.19163 -0.13428,0.30229 h 0.002 c -0.2991,0.8569 -0.56798,1.75954 -0.80573,2.70708 -0.23907,0.95193 -0.43598,1.94956 -0.59244,2.99383 -0.15353,1.04359 -0.25932,2.12933 -0.3061,3.22057 -0.0442,1.03065 -0.0275,2.06497 0.0316,3.10235 h -2.08344 -2.10514 -1.94124 -1.77931 -1.61538 -1.44952 -1.28165 -1.1138 -0.94395 -0.77215 -0.60231 -0.43052 -0.2587 -0.0869 v 0.17439 h -0.17777 v 27.00468 h 0.17773 v 0.17245 h 0.0869 0.2587 0.43051 0.60231 0.77215 0.94396 1.11379 1.28166 1.4495 1.6154 1.7793 1.94124 2.10514 2.08343 c -0.04,0.96247 -0.0539,1.92051 -0.0315,2.87369 h 0.0218 c 0.005,0.21966 -0.0103,0.44242 -0.002,0.66079 3.4e-4,0.009 0.002,0.0165 0.002,0.0251 3e-5,6.5e-4 -2e-5,9.9e-4 0,0.002 2.8e-4,0.007 -2.8e-4,0.0141 0,0.0212 2.3e-4,0.006 -2.3e-4,0.0118 0,0.0176 h 0.004 c 0.0485,1.20361 0.14088,2.38702 0.2824,3.54805 0.006,0.047 0.0159,0.0907 0.0218,0.13759 h -0.004 c 0.11023,0.87791 0.26,1.69854 0.41076,2.51908 0.0484,0.26373 0.078,0.54537 0.13033,0.80418 10e-4,0.005 0.003,0.0102 0.004,0.0153 0.22108,1.08347 0.47324,2.12459 0.75636,3.12948 h -0.002 c 0.002,0.008 0.006,0.0137 0.008,0.0212 h -0.002 c 2.3e-4,8.5e-4 0.002,0.001 0.002,0.002 0.002,0.005 0.002,0.0102 0.004,0.0153 0.002,0.008 0.004,0.0157 0.006,0.0231 0.003,0.01 0.007,0.0177 0.0101,0.0271 h -0.002 c 0.16221,0.57576 0.39382,1.04863 0.5727,1.59866 0.13526,0.41595 0.28823,0.80665 0.43248,1.20916 0.34111,0.95153 0.63175,1.97207 1.019,2.86208 l 0.004,-0.002 c 0.006,0.0137 0.0101,0.0306 0.0158,0.0445 h 0.002 c 0.004,0.008 0.006,0.0188 0.0101,0.0271 10e-4,0.003 0.002,0.006 0.004,0.01 0.77936,1.77989 1.63635,3.42262 2.56528,4.9781 l 0.15207,-0.0872 -0.10862,0.13759 0.68527,0.51739 0.69315,0.52513 0.70304,0.53094 0.7129,0.5387 0.72081,0.54645 0.73265,0.55226 0.74056,0.56002 0.74845,0.56582 0.7603,0.57358 0.76623,0.58133 0.77807,0.58714 0.78597,0.5949 0.79388,0.6007 0.80375,0.60651 0.10861,-0.13758 v 0.1744 h 19.63357 v 6.75784 h 0.17773 v 0.17245 h 0.37325 1.09997 1.7714 2.35398 2.82002 3.14193 3.30978 3.30978 3.14192 2.82003 2.35595 1.7714 1.09997 0.37127 v -0.17245 h 0.17773 v -6.75697 h 2.440865 2.96617 181.5344 2.96419 2.44087 v 6.75697 h 0.17774 v 0.17245 h 0.37324 1.09997 1.7714 2.35398 2.82003 3.14192 3.30978 3.30979 3.14192 2.82002 2.35595 1.77141 1.09996 0.37325 v -0.17245 h 0.17576 v -6.75697 h 19.63356 v -0.17633 l 0.10859,0.13951 0.80375,-0.60652 0.79387,-0.6007 0.78597,-0.5949 0.77808,-0.58714 0.7682,-0.58133 0.75833,-0.57357 0.75043,-0.56583 0.73858,-0.56001 0.73266,-0.55227 0.72277,-0.54645 0.71093,-0.53869 0.70304,-0.53094 0.69513,-0.52514 0.68328,-0.51739 -0.10863,-0.13759 0.15405,0.0872 c 0.003,-0.004 0.005,-0.009 0.008,-0.0137 7.2e-4,-9.9e-4 10e-4,-0.003 0.002,-0.004 0.42618,-0.71465 0.78178,-1.53033 1.17699,-2.28656 0.46222,-0.88507 0.96166,-1.72448 1.37644,-2.67217 3.6e-4,-8.3e-4 0.002,-9.9e-4 0.002,-0.002 h -0.002 v -0.002 c 0.003,-0.008 0.008,-0.0137 0.012,-0.0212 0.002,-0.004 0.004,-0.009 0.006,-0.0137 0.77461,-1.76916 1.46298,-3.65504 2.04197,-5.71058 h 0.002 c 3.3e-4,-9.9e-4 -3.4e-4,-0.003 0,-0.004 0.001,-0.004 0.003,-0.009 0.004,-0.0137 1.8e-4,-5.8e-4 -1.6e-4,-9.9e-4 0,-0.002 0.006,-0.0227 0.0112,-0.0487 0.0178,-0.0717 h 0.002 c 0.0298,-0.10501 0.0501,-0.22162 0.079,-0.32749 0.22194,-0.81318 0.43395,-1.6427 0.61811,-2.51715 4.1e-4,-0.002 0.002,-0.004 0.002,-0.006 0.008,-0.04 0.0116,-0.0859 0.0197,-0.12594 0.0108,-0.0528 0.0267,-0.1001 0.0376,-0.15308 l -0.0101,-0.002 c 0.20382,-0.99717 0.38346,-2.02775 0.52529,-3.11398 l -0.0256,-0.004 c 0.007,-0.0534 0.0228,-0.0976 0.0298,-0.15115 l 0.0178,0.002 c 0.008,-0.0607 0.0124,-0.12501 0.0197,-0.18602 10e-4,-0.011 0.005,-0.02 0.006,-0.031 0.004,-0.0369 0.005,-0.0755 0.0101,-0.11237 0.006,-0.0497 0.0101,-0.10124 0.0159,-0.15116 h 0.006 c 0.009,-0.0807 0.0108,-0.16523 0.0197,-0.24608 0.0372,-0.33984 0.0769,-0.6752 0.10665,-1.02314 0.0364,-0.42747 0.0543,-0.86999 0.079,-1.30799 h 0.0139 c 0.0101,-0.18221 0.0139,-0.36567 0.0217,-0.54839 0.002,-0.0505 0.0101,-0.0986 0.012,-0.1492 h -0.004 c 10e-4,-0.0318 0.007,-0.063 0.008,-0.095 7.8e-4,-0.0204 -7.6e-4,-0.0415 0,-0.062 0.001,-0.0345 0.005,-0.0682 0.006,-0.10269 h -0.006 c 0.005,-0.15594 0.0159,-0.3107 0.0197,-0.46701 h -0.0217 c 0.0225,-0.95476 0.0267,-1.91062 -0.0139,-2.87369 h 2.08738 2.10317 1.94321 1.77931 1.61539 1.44753 1.28166 1.11378 0.94397 0.77412 0.60233 0.4305 0.25672 0.0869 v -0.17198 h 0.17774 v -27.0046 h -0.17774 v -0.17439 h -0.0869 -0.25672 -0.4305 -0.60233 -0.77412 -0.94397 -1.11378 -1.28166 -1.44753 -1.61539 -1.77931 -1.94321 -2.10317 -2.0854 c 0.0583,-1.0184 0.0752,-2.03421 0.0337,-3.04616 l -0.16984,0.006 c -0.004,-0.0969 -0.007,-0.192 -0.012,-0.28874 l 0.16984,-0.008 c -0.029,-0.58413 -0.17797,-1.04211 -0.23697,-1.60058 -0.0471,-0.45723 0.007,-0.94834 -0.0592,-1.39326 -0.15544,-1.04178 -0.35234,-2.03977 -0.59244,-2.99383 -3.6e-4,-9.9e-4 -0.002,-0.002 -0.002,-0.004 -0.23751,-0.94734 -0.50701,-1.84999 -0.8077,-2.70899 -0.0205,-0.059 -0.0462,-0.10998 -0.0671,-0.16859 l 0.008,-0.002 c -0.0209,-0.0593 -0.0499,-0.10194 -0.0711,-0.16082 -0.2667,-0.73664 -0.54319,-1.45747 -0.84522,-2.13348 -0.12477,-0.27921 -0.26349,-0.52859 -0.39298,-0.79835 -0.0559,-0.11652 -0.0991,-0.25529 -0.15602,-0.37012 l -0.0217,0.01 c -0.1739,-0.35088 -0.33944,-0.71977 -0.52135,-1.05414 -0.002,-0.003 -0.002,-0.007 -0.004,-0.01 -0.006,-0.0107 -0.0139,-0.0183 -0.0197,-0.0291 -0.002,-0.004 -0.004,-0.008 -0.006,-0.0116 -0.004,-0.007 -0.006,-0.0148 -0.0101,-0.0213 l -0.004,0.002 c -0.75651,-1.38614 -1.57865,-2.65882 -2.46332,-3.83682 l -0.14417,0.10464 0.0947,-0.14727 -0.68329,-0.42437 -0.69315,-0.43212 -0.70502,-0.43599 -0.71092,-0.44181 -0.72279,-0.44762 -0.73067,-0.45345 -0.74056,-0.45925 -0.75043,-0.46506 -0.75832,-0.47088 -0.76821,-0.47668 -0.77807,-0.4825 -0.784,-0.48638 -0.79585,-0.49413 -0.80374,-0.49801 -0.0947,0.14728 v -0.17441 h -52.17323 -2.96418 -67.78535 v -3.58099 h -0.17775 v -0.17439 h -0.14219 -0.42854 -0.70895 -0.97754 -1.2382 -1.47913 -1.70426 -1.90767 -2.0854 -2.23746 -2.36384 -2.45667 -2.52183 -2.55343 -2.55343 -2.51986 -2.45864 -2.36187 -2.23943 -2.0854 -1.9057 -1.70425 -1.48112 -1.23622 -0.9795 -0.70699 -0.42853 z"
       id="path372" />
  </g>
</svg>
