<?xml version="1.0" encoding="UTF-8" standalone="no"?>
<svg
   xmlns:dc="http://purl.org/dc/elements/1.1/"
   xmlns:cc="http://creativecommons.org/ns#"
   xmlns:rdf="http://www.w3.org/1999/02/22-rdf-syntax-ns#"
   xmlns:svg="http://www.w3.org/2000/svg"
   xmlns="http://www.w3.org/2000/svg"
   xmlns:sodipodi="http://sodipodi.sourceforge.net/DTD/sodipodi-0.dtd"
   xmlns:inkscape="http://www.inkscape.org/namespaces/inkscape"
   width="420mm"
   height="297mm"
   viewBox="45 30 93.437 60.729"
   version="1.1"
   id="svg8"
   inkscape:version="1.0.2 (e86c8708, 2021-01-15)"
   sodipodi:docname="base.svg">
  <defs
     id="defs2" />
  <sodipodi:namedview
     id="base"
     pagecolor="#ffffff"
     bordercolor="#666666"
     borderopacity="1.0"
     inkscape:pageopacity="0.0"
     inkscape:pageshadow="2"
     inkscape:zoom="0.13311473"
     inkscape:cx="1518.5689"
     inkscape:cy="-1355.3589"
     inkscape:document-units="mm"
     inkscape:current-layer="layer1"
     inkscape:document-rotation="0"
     showgrid="false"
     inkscape:window-width="1792"
     inkscape:window-height="1067"
     inkscape:window-x="3840"
     inkscape:window-y="99"
     inkscape:window-maximized="1"
     viewbox-x="45" />
  <metadata
     id="metadata5">
    <rdf:RDF>
      <cc:Work
         rdf:about="">
        <dc:format>image/svg+xml</dc:format>
        <dc:type
           rdf:resource="http://purl.org/dc/dcmitype/StillImage" />
        <dc:title></dc:title>
      </cc:Work>
    </rdf:RDF>
  </metadata>
  <g
     inkscape:label="Ebene 1"
     inkscape:groupmode="layer"
     id="layer1">
    <path
       id="path16586-1"
       style="fill:none;stroke:#000000;stroke-width:0.793751;stroke-linecap:butt;stroke-linejoin:miter;stroke-miterlimit:4;stroke-dasharray:none"
       d="m 52.009539,47.278875 c -0.23838,0.48822 -0.45559,0.96513 -0.65241,1.425341 -0.19682,0.4602 -0.37325,0.90368 -0.5225,1.30056 -0.0745,0.19841 -0.14245,0.3852 -0.20204,0.55308 -0.0596,0.16787 -0.11083,0.31685 -0.1503,0.43375 -0.0395,0.11664 -0.0677,0.20243 -0.0818,0.24512 m 1.60906,-13.357061 c -0.23106,0.4239 -0.44644,0.83397 -0.64378,1.22181 -0.0985,0.19416 -0.19264,0.38203 -0.28203,0.56363 -0.0894,0.18135 -0.17382,0.35571 -0.25092,0.51712 -0.0774,0.16219 -0.14664,0.30911 -0.2078,0.44077 -0.0609,0.130861 -0.11292,0.244121 -0.15239,0.330631 -0.0557,0.12194 -0.0863,0.19005 -0.086,0.18946 m 0,10.1358 c 0,5e-5 0.003,-0.01 0.01,-0.0297 0.0149,-0.0449 0.0463,-0.14082 0.0894,-0.26763 0.0429,-0.12678 0.0972,-0.28446 0.1597,-0.45966 0.0625,-0.17522 0.13278,-0.36798 0.20885,-0.56921 0.15212,-0.4024 0.32698,-0.83856 0.51988,-1.28836 0.19316,-0.450621 0.40488,-0.912441 0.63542,-1.385471 m -1.60723,3.952061 q -0.0157,0.0479 -0.0157,0.048 m 84.062131,-10.15516 a 48.689066,48.5423 0 0 1 0.009,39.85026 m -0.0159,-29.74309 a 31.583842,31.488637 0 0 1 0.006,19.63803 m -84.052261,10.1245 a 48.689066,48.5423 0 0 1 -0.009,-39.85026 m 0.0102,29.72576 a 31.583842,31.488637 0 0 1 0.006,-19.63803 m 1.60722,-13.351251 0.17696,-0.32173 0.1793,-0.3204 0.18192,-0.31904 0.18402,-0.31766 0.18662,-0.31626 0.18924,-0.31485 0.19133,-0.31338 0.19368,-0.31196 0.1963,-0.31049 0.19839,-0.30891 0.201,-0.3075 0.20309,-0.30593 0.20544,-0.30463 0.2078,-0.30281 m -2.11273,12.64043 h 2.11273 m -2.69508,1.13433 q 0.27967,-0.57302 0.58235,-1.13433 m -2.20134,34.838321 q 0,-3e-5 0.006,0.0137 m 1.61297,3.24101 c -0.23968,-0.43972 -0.46054,-0.86099 -0.66155,-1.25676 -0.20073,-0.39576 -0.38161,-0.76598 -0.53138,-1.07963 -0.075,-0.15745 -0.14141,-0.29885 -0.19969,-0.42419 -0.0852,-0.18317 -0.15056,-0.32676 -0.18794,-0.4091 m 0.94829,-7.60815 c 0.19159,0.4458 0.40226,0.90759 0.63228,1.37861 m -1.53378,-3.73189 q 0.0327,0.0965 0.0753,0.22013 m -0.16467,9.64738 c -2.6e-4,-5.2e-4 0.0303,0.0673 0.0857,0.18895 0.0395,0.0865 0.0915,0.1997 0.15238,0.33033 0.0609,0.13066 0.13043,0.27873 0.20702,0.4391 0.15317,0.32068 0.33456,0.69052 0.53295,1.0806 0.19839,0.3901 0.41377,0.80048 0.64509,1.22462 m -1.61115,-3.23723 q -0.012,-0.0264 -0.012,-0.0264 m 2.6e-4,-10.13513 q 0,-8e-5 0.0157,0.0475 m 1.60723,3.95203 c -0.23054,-0.47208 -0.44199,-0.93547 -0.63463,-1.38408 -0.19264,-0.44861 -0.36646,-0.88244 -0.51884,-1.28506 -0.0761,-0.20128 -0.1469,-0.39477 -0.20963,-0.57106 -0.063,-0.17629 -0.11762,-0.33538 -0.16075,-0.46237 -0.0431,-0.12698 -0.0742,-0.22184 -0.0891,-0.26679 -0.007,-0.0201 -0.01,-0.0302 -0.01,-0.0302 m 4.318,17.77431 -0.2078,-0.30281 -0.20545,-0.30463 -0.20309,-0.30594 -0.201,-0.30749 -0.19839,-0.30891 -0.19629,-0.31049 -0.19369,-0.31196 -0.19133,-0.31339 -0.18923,-0.31484 -0.18663,-0.31626 -0.18401,-0.31766 -0.18192,-0.31904 -0.17931,-0.3204 -0.17695,-0.32173 m 0.58235,-8.26488 q -0.30268,-0.56132 -0.58235,-1.13434 m 2.69509,1.13434 h -2.11274 m 80.242591,8.26488 c 0.23106,-0.4239 0.44643,-0.83397 0.64378,-1.22181 0.0985,-0.19417 0.19263,-0.38203 0.28202,-0.56363 0.0894,-0.18135 0.17382,-0.35571 0.25093,-0.51712 0.0774,-0.1622 0.14663,-0.30912 0.2078,-0.44077 0.0609,-0.13087 0.11291,-0.24412 0.15238,-0.33064 0.0557,-0.12193 0.0863,-0.19005 0.086,-0.18945 m 0,-10.13531 q 0,-8e-5 -0.0157,0.0475 m -1.60722,3.95203 c 0.23053,-0.47209 0.44199,-0.93547 0.63463,-1.38408 0.19263,-0.44861 0.36645,-0.88244 0.51884,-1.28506 0.0761,-0.20128 0.14689,-0.39477 0.20962,-0.57106 0.063,-0.17629 0.11762,-0.33538 0.16075,-0.46237 0.0431,-0.12698 0.0742,-0.22184 0.0891,-0.26679 0.006,-0.0201 0.01,-0.0302 0.01,-0.0302 m 2.6e-4,-29.6955 c 2.6e-4,5.2e-4 -0.0303,-0.0673 -0.0857,-0.18896 -0.0395,-0.0865 -0.0915,-0.19969 -0.15238,-0.330331 -0.0609,-0.13066 -0.13043,-0.27873 -0.20701,-0.4391 -0.15314,-0.32068 -0.33454,-0.69051 -0.53293,-1.08059 -0.19838,-0.3901 -0.41376,-0.80049 -0.64508,-1.22463 m 1.61114,3.237241 q 0.012,0.0263 0.012,0.0264 m -2.6e-4,10.13562 c 0,5e-5 -0.003,-0.01 -0.01,-0.0297 -0.0149,-0.0449 -0.0463,-0.14083 -0.0894,-0.26763 -0.0429,-0.12678 -0.0972,-0.28446 -0.1597,-0.45966 -0.0625,-0.17522 -0.13278,-0.36798 -0.20884,-0.56921 -0.15213,-0.40241 -0.32699,-0.83856 -0.51989,-1.28837 -0.19316,-0.450611 -0.40488,-0.912431 -0.63541,-1.385461 m 1.60722,3.952061 q 0.0157,0.0479 0.0157,0.048 m -0.99063,22.18079 c -0.19159,0.44579 -0.40226,0.90759 -0.63228,1.37861 m 1.53378,-3.73189 q -0.0327,0.0965 -0.0753,0.22012 m 0.16049,-30.19222 q 0,3e-5 -0.006,-0.0137 M 132.835,37.879735 c 0.23969,0.43972 0.46055,0.86099 0.66156,1.25675 0.20074,0.39576 0.38161,0.76599 0.53138,1.07964 0.075,0.15745 0.14141,0.29884 0.19969,0.42419 0.0852,0.183171 0.15056,0.326751 0.18794,0.409101 m -1.58054,6.229539 c 0.23838,0.48822 0.45558,0.96513 0.6524,1.425341 0.19682,0.4602 0.37325,0.90368 0.5225,1.30056 0.0745,0.19841 0.14245,0.3852 0.20205,0.55308 0.0596,0.16787 0.11082,0.31685 0.15029,0.43375 0.0395,0.11664 0.0677,0.20243 0.0818,0.24512 m -17.79085,39.01834 13.48671,-1.64199 m -14.25321,2.4136 0.7665,-0.77161 m -0.7665,0.77161 H 68.958369 m -0.7665,-0.77161 0.7665,0.77161 m -14.2532,-2.4136 13.4867,1.64199 m -11.15546,-14.28242 h -2.33124 m 3.15903,-0.95563 -0.82779,0.95563 m 0.82779,-28.872481 v 27.916851 m -0.82779,-28.872471 0.82779,0.95562 m -3.15903,-0.95562 h 2.33124 m 11.15546,-14.28242 -13.4867,1.64199 m 14.2532,-2.41361 -0.7665,0.77162 m 47.694851,-0.77162 H 68.958369 m 47.694851,0.77162 -0.7665,-0.77162 m 14.25321,2.41361 -13.48671,-1.64199 m 13.48671,14.28242 h -2.33125 m 0,0 -0.82779,0.95562 m 0,0 v 27.916851 m 0,0 0.82779,0.95563 m 0,0 h 2.33125 m 2.11273,-29.828101 h -2.11273 m 0,-12.64043 0.2078,0.30281 0.20544,0.30463 0.20309,0.30593 0.201,0.3075 0.19839,0.30891 0.1963,0.31049 0.19368,0.31196 0.19133,0.31338 0.18924,0.31485 0.18662,0.31626 0.18402,0.31766 0.18192,0.31904 0.1793,0.3204 0.17696,0.32173 m -0.58236,8.26488 q 0.30268,0.56131 0.58236,1.13433 m 0,27.559431 q -0.27968,0.57302 -0.58236,1.13434 m 0.58236,8.26488 -0.17696,0.32173 -0.1793,0.3204 -0.18192,0.31904 -0.18402,0.31766 -0.18662,0.31626 -0.18924,0.31484 -0.19133,0.31339 -0.19368,0.31196 -0.1963,0.31049 -0.19839,0.30891 -0.201,0.30749 -0.20309,0.30594 -0.20544,0.30463 -0.2078,0.30281 m 0,-12.64043 h 2.11273"
       inkscape:transform-center-x="-3.4437098"
       inkscape:transform-center-y="5.6821211" />
  </g>
</svg>
