<?xml version="1.0" encoding="UTF-8" standalone="no"?>
<svg
   xmlns:dc="http://purl.org/dc/elements/1.1/"
   xmlns:cc="http://creativecommons.org/ns#"
   xmlns:rdf="http://www.w3.org/1999/02/22-rdf-syntax-ns#"
   xmlns:svg="http://www.w3.org/2000/svg"
   xmlns="http://www.w3.org/2000/svg"
   xmlns:xlink="http://www.w3.org/1999/xlink"
   xmlns:sodipodi="http://sodipodi.sourceforge.net/DTD/sodipodi-0.dtd"
   xmlns:inkscape="http://www.inkscape.org/namespaces/inkscape"
   id="svg2"
   version="1.1"
   viewBox="0 0 103.79626 75.288635"
   height="75.288635mm"
   width="103.79626mm"
   sodipodi:docname="Spiider.svg"
   inkscape:version="1.0.2 (e86c870879, 2021-01-15)">
  <path
     id="path22815"
     style="color:#000000;font-style:normal;font-variant:normal;font-weight:normal;font-stretch:normal;font-size:medium;line-height:normal;font-family:sans-serif;font-variant-ligatures:normal;font-variant-position:normal;font-variant-caps:normal;font-variant-numeric:normal;font-variant-alternates:normal;font-variant-east-asian:normal;font-feature-settings:normal;font-variation-settings:normal;text-indent:0;text-align:start;text-decoration:none;text-decoration-line:none;text-decoration-style:solid;text-decoration-color:#000000;letter-spacing:normal;word-spacing:normal;text-transform:none;writing-mode:lr-tb;direction:ltr;text-orientation:mixed;dominant-baseline:auto;baseline-shift:baseline;text-anchor:start;white-space:normal;shape-padding:0;shape-margin:0;inline-size:0;clip-rule:nonzero;display:inline;overflow:visible;visibility:visible;opacity:1;isolation:auto;mix-blend-mode:normal;color-interpolation:sRGB;color-interpolation-filters:linearRGB;solid-color:#000000;solid-opacity:1;vector-effect:none;fill:#c8c8c8;fill-opacity:1;fill-rule:nonzero;stroke:none;stroke-width:0.999998;stroke-linecap:butt;stroke-linejoin:miter;stroke-miterlimit:4;stroke-dasharray:none;stroke-dashoffset:0;stroke-opacity:1;color-rendering:auto;image-rendering:auto;shape-rendering:auto;text-rendering:auto;enable-background:accumulate;stop-color:#000000;stop-opacity:1"
     d="m 28.43442,7.5849124 v 0.090493 l -0.06537,-0.0641 -0.744248,0.749275 -13.455043,1.6377896 0.01134,0.091578 -0.07564,-0.05196 -0.208283,0.303261 -0.206119,0.304611 -0.203145,0.306232 -0.201257,0.308379 -0.199099,0.309458 -0.196123,0.311616 -0.193965,0.312424 -0.191801,0.313498 -0.189908,0.315655 -0.186944,0.316457 -0.184775,0.318621 -0.181805,0.319694 -0.179647,0.320768 -0.176677,0.32266 h -10e-4 c -0.231494,0.424692 -0.446573,0.836057 -0.644296,1.224642 -0.09868,0.194443 -0.192982,0.381705 -0.282568,0.563702 -0.08957,0.181716 -0.17398,0.356469 -0.251233,0.518193 -0.07748,0.162416 -0.146958,0.309969 -0.208283,0.441969 -0.061011,0.131104 -0.1136168,0.245113 -0.1531688,0.331812 -0.027654,0.06054 -0.048983,0.108234 -0.063484,0.140323 -0.00732,0.01616 -0.013592,0.02841 -0.017303,0.03664 -0.00209,0.0042 -0.00314,0.0071 -0.00418,0.0092 -4.6e-4,0.001 -0.00105,0.0016 -0.00105,0.0021 v 10e-4 c -1.307e-4,2.87e-4 1.307e-4,5.22e-4 0,0.001 h -0.00105 c -5.725203,12.688887 -5.7238543,27.214771 0.00105,39.903033 v 0.001 c 1.307e-4,2.92e-4 -1.307e-4,5.21e-4 0,10e-4 2.614e-4,5.21e-4 5.227e-4,10e-4 0.00105,0.0021 l 0.00209,0.0042 c 1.307e-4,2.92e-4 -1.307e-4,5.22e-4 0,10e-4 l 0.00105,0.0021 c 3.764e-4,10e-4 3.398e-4,10e-4 0.00105,0.0021 4.234e-4,0.001 0.00105,0.0031 0.00209,0.0052 3.346e-4,5.21e-4 5.228e-4,0.0021 0.00105,0.0031 5.019e-4,10e-4 4.705e-4,3.23e-4 0.00105,0.0021 h 0.00105 l 0.00209,0.0054 c 0.00314,0.0067 0.0047,0.01193 0.0092,0.02126 0.0047,0.01042 0.014376,0.03221 0.020544,0.04581 0.01286,0.0283 0.02504,0.05369 0.043755,0.0948 0.038423,0.08434 0.079418,0.174263 0.1450658,0.315384 0.0031,0.0063 0.0042,0.01006 0.007,0.01642 0.05664,0.121514 0.122828,0.260446 0.193155,0.408035 0.0054,0.01131 0.0088,0.02012 0.01432,0.03153 0.09166,0.19191 0.209083,0.425562 0.318496,0.646393 0.06899,0.139365 0.123952,0.25611 0.199098,0.404262 0.0037,0.0073 0.0084,0.0161 0.01213,0.02345 0.0016,0.0031 0.0026,0.0052 0.0042,0.0081 0.197321,0.38785 0.412316,0.798064 0.64645,1.227603 h 10e-4 l 0.176405,0.321581 0.179913,0.321846 0.181539,0.319424 0.185047,0.317812 0.186672,0.317537 0.189908,0.314576 0.192073,0.314577 0.193965,0.312423 0.196123,0.310537 0.199093,0.309459 0.200991,0.308384 0.203145,0.306493 0.20639,0.305153 0.208284,0.303533 0.07537,-0.05092 -0.01108,0.08942 13.454772,1.63779 0.744515,0.749275 0.06538,-0.0641 v 0.09157 h 46.927717 v -0.09157 l 0.06538,0.0641 0.743437,-0.749275 13.455854,-1.63779 -0.01134,-0.08942 0.07564,0.05092 0.208278,-0.303533 0.205308,-0.305153 0.20315,-0.306493 0.202068,-0.308384 0.198016,-0.309459 0.197206,-0.310537 0.193959,-0.312423 0.192073,-0.314577 0.188831,-0.314576 0.187749,-0.317537 0.18397,-0.317812 0.182616,-0.319424 0.179646,-0.321846 0.176672,-0.321581 c 0.231488,-0.424692 0.447655,-0.836058 0.645373,-1.224642 0.09868,-0.194438 0.193259,-0.382784 0.282844,-0.564781 0.08957,-0.181716 0.173975,-0.356469 0.251234,-0.518188 0.07733,-0.162119 0.147036,-0.309088 0.208278,-0.440895 v -0.001 c 0.06081,-0.130686 0.112639,-0.244258 0.152091,-0.330738 0.02786,-0.06107 0.04966,-0.108041 0.0643,-0.140323 0.0073,-0.01616 0.01249,-0.02866 0.0162,-0.0369 0.0021,-0.0042 0.0031,-0.0079 0.0042,-0.01 4.65e-4,-10e-4 10e-4,-0.0016 10e-4,-0.0021 h 0.001 c 1.31e-4,-2.86e-4 -1.3e-4,-5.21e-4 0,-10e-4 5.725485,-12.689263 5.724571,-27.215533 -0.001,-39.904107 1e-5,-5e-6 0.001,0 0.001,0 v -0.001 c -2.61e-4,-5.21e-4 -2.87e-4,-0.0021 -0.001,-0.0031 -10e-4,-0.0021 -0.0021,-0.0052 -0.0042,-0.0092 -5.23e-4,-0.0016 -0.0031,-0.0052 -0.0042,-0.007 -0.0037,-0.0079 -0.0077,-0.01678 -0.01349,-0.0296 -0.0047,-0.01027 -0.01422,-0.03143 -0.02028,-0.04472 -0.01291,-0.0284 -0.0241,-0.05418 -0.04297,-0.09561 -0.02248,-0.04925 -0.05676,-0.12336 -0.08671,-0.188263 -0.02007,-0.04352 -0.03544,-0.07708 -0.05835,-0.126314 -0.0021,-0.0047 -0.0058,-0.01126 -0.0081,-0.01616 -0.05659,-0.1214 -0.121558,-0.260884 -0.191806,-0.408306 -0.0042,-0.0091 -0.01093,-0.02225 -0.01537,-0.03153 -0.148851,-0.311647 -0.325842,-0.672843 -0.517595,-1.05065 -10e-4,-0.0026 -0.0026,-0.0056 -0.0042,-0.0081 -0.0047,-0.0088 -0.0077,-0.01564 -0.01218,-0.0245 -0.198763,-0.390841 -0.414417,-0.80157 -0.646183,-1.226528 l -0.176672,-0.32266 -0.179918,-0.320768 -0.182616,-0.319694 -0.183698,-0.318345 -0.188021,-0.316734 -0.188826,-0.315655 -0.192072,-0.313497 -0.193965,-0.312424 -0.196934,-0.311616 -0.198016,-0.309187 -0.20234,-0.30865 -0.203144,-0.306227 -0.205309,-0.304345 -0.208283,-0.303533 -0.07537,0.05196 0.01108,-0.091572 -13.455854,-1.6377899 -0.743437,-0.7492751 -0.0651,0.064101 V 7.5856734 Z M 12.0675,22.637999 h 2.113602 2.33107 v 0.09157 l 0.06943,-0.06006 0.827989,0.955846 -0.06997,0.06006 h 0.09131 v 27.917062 h -0.09023 l 0.06888,0.05925 -0.827989,0.955852 -0.06943,-0.05952 v 0.09103 h -2.33107 -2.113602 v -0.09076 l -0.07969,0.04284 c -0.202365,-0.3753 -0.39679,-0.754806 -0.583776,-1.137923 -0.231217,-0.47347 -0.444074,-0.937662 -0.63727,-1.387585 -0.193202,-0.449912 -0.366925,-0.884939 -0.519759,-1.288737 -0.07627,-0.201844 -0.147236,-0.396006 -0.210171,-0.572864 -0.037273,-0.104305 -0.064294,-0.184088 -0.09509,-0.273101 l -0.00105,2.71e-4 c -0.028438,-0.08252 -0.053787,-0.155485 -0.075638,-0.220044 h 2.666e-4 c -0.036175,-0.106868 -0.066824,-0.198477 -0.079961,-0.238087 v -5.21e-4 c -0.00209,-0.0059 -0.0047,-0.0136 -0.00622,-0.01777 -4.078e-4,-0.0016 -3.084e-4,-0.0021 -5.228e-4,-0.0031 C 7.6875413,41.087945 7.6866683,34.216363 9.7744351,27.842126 l 0.00105,-0.0054 c 0,0 3.607e-4,-10e-4 5.227e-4,-10e-4 h -5.227e-4 c 0,0 4.025e-4,-0.001 0.00105,-0.0031 5.227e-4,-0.0021 0.00157,-0.0052 0.00314,-0.0092 0.00209,-0.0068 0.00638,-0.01762 0.01056,-0.02992 v -2.71e-4 l -2.718e-4,-2.71e-4 c 0.014062,-0.04253 0.041978,-0.128368 0.081582,-0.245358 0.039625,-0.117314 0.091509,-0.266325 0.1512817,-0.434699 0.0031,-0.0092 0.0077,-0.02111 0.01108,-0.03044 0.001,-0.0026 0.0016,-0.0036 0.0021,-0.0062 0.0047,-0.01293 0.01072,-0.02887 0.01542,-0.04201 0.05321,-0.149017 0.109325,-0.305419 0.173431,-0.476174 h 10e-4 c 5.23e-4,-0.001 10e-4,-0.0026 0.0016,-0.0042 0.0064,-0.01699 0.01134,-0.03132 0.01783,-0.04847 0.06122,-0.161932 0.128552,-0.332474 0.196662,-0.503912 0.01066,-0.02684 0.01971,-0.05108 0.03053,-0.07811 0.09249,-0.230983 0.189563,-0.467887 0.293373,-0.709951 0.08372,-0.195319 0.172803,-0.393604 0.263659,-0.593066 0.01187,-0.02606 0.02264,-0.05113 0.03455,-0.0773 0.10866,-0.236805 0.221864,-0.476492 0.340112,-0.719109 0.186986,-0.383117 0.381678,-0.761809 0.584048,-1.137109 l 0.07942,0.04253 z m 75.258493,0.183139 h 2.289736 2.057415 c 0.191884,0.357365 0.377558,0.718833 0.555417,1.083245 0.114965,0.235893 0.224938,0.468966 0.330384,0.699178 1.41e-4,4.12e-4 2.66e-4,0.001 5.23e-4,0.0016 0.06775,0.147938 0.130564,0.292593 0.194503,0.438201 0.03727,0.08486 0.07699,0.171527 0.112916,0.255323 0.05207,0.121519 0.09951,0.238853 0.148851,0.357939 0.0436,0.105357 0.08967,0.213054 0.130747,0.315384 0.03936,0.09784 0.07415,0.189862 0.111301,0.284952 0.04574,0.11724 0.09364,0.237816 0.135342,0.34851 0.07047,0.187132 0.136859,0.367967 0.195314,0.531926 0.03827,0.107317 0.06666,0.190462 0.09806,0.28145 0.02096,0.06127 0.04731,0.136587 0.0643,0.186917 0.03837,0.113342 0.06519,0.195257 0.07969,0.239161 2.093512,6.353463 2.097945,13.207096 0.01218,19.562737 -0.0021,0.0061 -0.0042,0.0122 -0.006,0.01829 -0.015,0.04534 -0.0459,0.139291 -0.08888,0.265824 -0.04302,0.126747 -0.09743,0.285442 -0.160194,0.461097 -0.06253,0.175722 -0.133513,0.368373 -0.20936,0.569091 -0.151935,0.401427 -0.324713,0.834171 -0.516785,1.281467 -10e-4,0.0021 -0.0021,0.0042 -0.0026,0.0062 h -2.72e-4 c -0.191037,0.444507 -0.400632,0.904484 -0.629972,1.374117 -0.178,0.364699 -0.363914,0.725421 -0.555955,1.082979 h -2.056877 v 2.72e-4 h -2.28971 L 86.547782,51.567669 V 23.719555 Z" />
  <path
     id="path16586-1"
     style="fill:none;stroke:#000000;stroke-width:0.793751;stroke-linecap:butt;stroke-linejoin:miter;stroke-miterlimit:4;stroke-dasharray:none"
     d="m 11.485657,23.864601 c -0.238378,0.488219 -0.455585,0.965128 -0.652404,1.425334 -0.196819,0.460205 -0.373251,0.903681 -0.522499,1.300562 -0.07449,0.198415 -0.142452,0.385207 -0.202046,0.553081 -0.05959,0.167873 -0.1108254,0.316854 -0.1502938,0.433755 -0.039468,0.116641 -0.067697,0.202428 -0.081812,0.245113 M 11.485657,14.465385 c -0.23106,0.423905 -0.446437,0.833973 -0.643779,1.221812 -0.09854,0.194167 -0.192637,0.382028 -0.282029,0.563634 -0.08939,0.181346 -0.173817,0.355709 -0.250924,0.517119 -0.07737,0.162193 -0.146634,0.309114 -0.207797,0.440766 -0.0609,0.130869 -0.1129165,0.244122 -0.1523849,0.330639 -0.055674,0.121931 -0.086255,0.190049 -0.085994,0.18945 m 0,10.135805 c 0,5.2e-5 0.00314,-0.0099 0.00967,-0.02971 0.014899,-0.04493 0.046264,-0.140824 0.089392,-0.267628 0.042866,-0.126778 0.097233,-0.284462 0.1597029,-0.459658 0.06247,-0.175222 0.132781,-0.367982 0.208843,-0.569211 0.152123,-0.402406 0.326986,-0.838559 0.519884,-1.288367 0.19316,-0.450616 0.404878,-0.912437 0.635415,-1.385463 m -1.6072251,3.95206 q -0.015683,0.0479 -0.015683,0.048 M 93.92488,17.709469 a 48.689066,48.5423 0 0 1 0.0089,39.850259 M 93.91783,27.816635 a 31.583842,31.488637 0 0 1 0.0058,19.638032 M 9.8713747,57.579168 a 48.689066,48.5423 0 0 1 -0.00889,-39.850259 m 0.010194,29.725758 a 31.583842,31.488637 0 0 1 0.00575,-19.638032 m 1.6072253,-13.35125 0.176954,-0.321727 0.179307,-0.320398 0.18192,-0.319042 0.184012,-0.317662 0.186625,-0.316255 0.189239,-0.314847 0.19133,-0.313388 0.193683,-0.311955 0.196296,-0.310495 0.198387,-0.308906 0.201002,-0.307498 0.203092,-0.305935 0.205444,-0.304632 0.207797,-0.302808 M 12.068008,22.73027 h 2.112734 m -2.695085,1.134331 q 0.279677,-0.573016 0.582354,-1.134331 M 9.8666698,57.568588 q 0,-2.6e-5 0.00601,0.01365 m 1.6129752,3.241009 C 11.245972,60.383529 11.025106,59.962256 10.824104,59.566495 10.623365,59.170734 10.44249,58.800511 10.292719,58.486862 10.217703,58.329412 10.151313,58.188015 10.093025,58.06267 10.007815,57.8795 9.94247,57.735914 9.9050927,57.653567 m 0.9482863,-7.608146 c 0.191592,0.445795 0.402264,0.90759 0.632278,1.37861 M 9.9518797,47.692145 q 0.032673,0.09652 0.075277,0.220122 M 9.8624874,57.55965 c -2.614e-4,-5.22e-4 0.03032,0.06734 0.085733,0.188955 0.039468,0.08646 0.091483,0.199692 0.1523846,0.330326 0.0609,0.130661 0.130428,0.27873 0.207013,0.439098 0.153168,0.320684 0.334566,0.690517 0.532953,1.080597 0.198388,0.390106 0.413765,0.800486 0.645086,1.224626 m -1.6111458,-3.23723 q -0.012023,-0.02637 -0.012023,-0.02637 m 2.613e-4,-10.135133 q 0,-7.9e-5 0.015683,0.04748 m 1.6072255,3.952035 c -0.230537,-0.472089 -0.441993,-0.935473 -0.63463,-1.384083 -0.192637,-0.448609 -0.366455,-0.882442 -0.51884,-1.285057 -0.07606,-0.201281 -0.146895,-0.394771 -0.209626,-0.571061 -0.06299,-0.176291 -0.117622,-0.335382 -0.1607493,-0.462369 -0.043128,-0.126986 -0.074232,-0.221842 -0.08913,-0.266794 -0.00653,-0.02012 -0.00993,-0.03018 -0.00993,-0.03018 M 14.180745,65.1988 13.972948,64.895993 13.767504,64.59136 13.564412,64.285425 13.36341,63.977927 13.165023,63.669021 12.968727,63.358526 12.775044,63.046571 12.583714,62.733183 12.394475,62.418336 12.20785,62.102081 12.023838,61.78442 11.841918,61.465377 11.662611,61.144979 11.485657,60.823252 m 0.582354,-8.264884 q -0.302677,-0.561321 -0.582354,-1.134337 m 2.695088,1.134337 h -2.112734 m 80.242586,8.264884 c 0.23106,-0.423905 0.446437,-0.833973 0.643779,-1.221812 0.09854,-0.194167 0.192637,-0.382028 0.282029,-0.563634 0.08939,-0.181346 0.173818,-0.355708 0.250925,-0.517119 0.07737,-0.162193 0.146634,-0.309114 0.207797,-0.440765 0.0609,-0.13087 0.112916,-0.244123 0.152384,-0.33064 0.05567,-0.121931 0.08626,-0.190049 0.08599,-0.18945 m 0,-10.135315 q 0,-7.9e-5 -0.01568,0.04748 m -1.607225,3.952035 c 0.230537,-0.472089 0.441994,-0.935473 0.634631,-1.384083 0.192637,-0.448609 0.366454,-0.882442 0.518839,-1.285057 0.07606,-0.201281 0.146895,-0.394771 0.209627,-0.571061 0.06299,-0.176291 0.11762,-0.335382 0.160748,-0.462369 0.04313,-0.126986 0.07423,-0.221842 0.08913,-0.266794 0.0065,-0.02012 0.0099,-0.03018 0.0099,-0.03018 m 2.62e-4,-29.695503 c 2.61e-4,5.21e-4 -0.03032,-0.06734 -0.08573,-0.188956 -0.03947,-0.08646 -0.09148,-0.199691 -0.152385,-0.330326 -0.0609,-0.130661 -0.130428,-0.278729 -0.207012,-0.439098 -0.153138,-0.320681 -0.334536,-0.690513 -0.532923,-1.080594 -0.198387,-0.390106 -0.413765,-0.800486 -0.645086,-1.224626 m 1.611146,3.237231 q 0.01202,0.02632 0.01202,0.02637 m -2.62e-4,10.135622 c 0,5.2e-5 -0.0031,-0.0099 -0.0097,-0.02971 -0.0149,-0.04493 -0.04626,-0.140824 -0.08939,-0.267628 -0.04287,-0.126778 -0.09723,-0.284462 -0.159703,-0.459658 -0.06247,-0.175222 -0.132781,-0.367982 -0.208843,-0.569211 -0.152123,-0.402406 -0.326986,-0.838559 -0.519884,-1.288367 -0.19316,-0.450616 -0.404878,-0.912437 -0.635415,-1.385463 m 1.607225,3.95206 q 0.01568,0.0479 0.01568,0.048 m -0.99063,22.180785 c -0.191591,0.445795 -0.402263,0.90759 -0.632278,1.37861 m 1.533778,-3.731886 q -0.03267,0.09652 -0.07528,0.220122 m 0.160487,-30.192218 q 0,2.6e-5 -0.006,-0.01371 m -1.612976,-3.240957 c 0.239686,0.439723 0.460552,0.860996 0.661553,1.256757 0.20074,0.395761 0.381615,0.765984 0.531385,1.079633 0.07502,0.15745 0.141407,0.298847 0.199694,0.424192 0.08521,0.18317 0.150555,0.326756 0.187933,0.409103 m -1.58054,6.229539 c 0.238379,0.488219 0.455585,0.965128 0.652405,1.425334 0.196819,0.460205 0.37325,0.903681 0.522498,1.300562 0.07449,0.198415 0.142452,0.385207 0.202047,0.553081 0.05959,0.167873 0.110825,0.316854 0.150293,0.433755 0.03947,0.116641 0.0677,0.202428 0.08181,0.245113 M 76.128802,66.840791 89.615509,65.1988 m -14.253204,2.413604 0.766497,-0.771613 m -0.766497,0.771613 H 28.433949 m -0.766497,-0.771613 0.766497,0.771613 M 14.180745,65.1988 27.667452,66.840791 M 16.511993,52.558368 h -2.331248 m 3.159038,-0.955623 -0.82779,0.955623 m 0.82779,-28.872481 v 27.916858 m -0.82779,-28.872475 0.82779,0.955617 M 14.180745,22.73027 h 2.331248 M 27.667452,8.4478473 14.180745,10.089837 M 28.433949,7.6762343 27.667452,8.4478473 M 75.362305,7.6762343 H 28.433949 m 47.694853,0.771613 -0.766497,-0.771613 M 89.615509,10.089837 76.128802,8.4478473 M 89.615509,22.73027 h -2.331248 m 0,0 -0.82779,0.955617 m 0,0 v 27.916858 m 0,0 0.82779,0.955623 m 0,0 h 2.331248 M 91.728243,22.73027 h -2.112734 m 0,-12.640433 0.207797,0.302808 0.205445,0.304632 0.203092,0.305935 0.201001,0.307498 0.198387,0.308906 0.196297,0.310495 0.193682,0.311955 0.19133,0.313388 0.189239,0.314847 0.186626,0.316255 0.184011,0.317662 0.18192,0.319042 0.179307,0.320398 0.176954,0.321727 m -0.582354,8.264885 q 0.302678,0.561315 0.582354,1.134331 m 0,27.55943 q -0.279676,0.573016 -0.582354,1.134337 m 0.582354,8.264884 -0.176954,0.321727 -0.179307,0.320398 -0.18192,0.319043 -0.184011,0.317661 -0.186626,0.316255 -0.189239,0.314847 -0.19133,0.313388 -0.193682,0.311955 -0.196297,0.310495 -0.198387,0.308906 -0.201001,0.307498 -0.203092,0.305935 -0.205445,0.304633 -0.207797,0.302807 m 0,-12.640432 h 2.112734" />
  <path
     style="color:#000000;font-style:normal;font-variant:normal;font-weight:normal;font-stretch:normal;font-size:medium;line-height:normal;font-family:sans-serif;font-variant-ligatures:normal;font-variant-position:normal;font-variant-caps:normal;font-variant-numeric:normal;font-variant-alternates:normal;font-variant-east-asian:normal;font-feature-settings:normal;font-variation-settings:normal;text-indent:0;text-align:start;text-decoration:none;text-decoration-line:none;text-decoration-style:solid;text-decoration-color:#000000;letter-spacing:normal;word-spacing:normal;text-transform:none;writing-mode:lr-tb;direction:ltr;text-orientation:mixed;dominant-baseline:auto;baseline-shift:baseline;text-anchor:start;white-space:normal;shape-padding:0;shape-margin:0;inline-size:0;clip-rule:nonzero;display:inline;overflow:visible;visibility:visible;opacity:1;isolation:auto;mix-blend-mode:normal;color-interpolation:sRGB;color-interpolation-filters:linearRGB;solid-color:#000000;solid-opacity:1;vector-effect:none;fill:#c8c8c8;fill-opacity:1;fill-rule:nonzero;stroke:none;stroke-width:0.999998;stroke-linecap:butt;stroke-linejoin:miter;stroke-miterlimit:4;stroke-dasharray:none;stroke-dashoffset:0;stroke-opacity:1;color-rendering:auto;image-rendering:auto;shape-rendering:auto;text-rendering:auto;enable-background:accumulate;stop-color:#000000;stop-opacity:1"
     d="m 0.39701665,23.915388 v 0.09157 h -0.0918437 v 27.274713 h 0.0918437 v 0.09157 h 0.0164669 0.0478325 0.0807716 0.11345979 0.14480448 0.17775402 0.20936006 0.2417765 0.2747364 0.3052656 0.3390254 0.370642 0.4022427 0.4338489 10.2878765 16.688392 42.733752 16.688392 10.287874 0.43493 0.40224 0.37064 0.33796 0.30634 0.27447 0.24097 0.21044 0.17667 0.14588 0.11238 0.0808 0.0489 0.0154 v -0.09157 h 0.0918 V 24.00696 h -0.0918 v -0.09157 h -0.0154 -0.0489 -0.0808 -0.11238 -0.14588 -0.17667 -0.21044 -0.24179 -0.27365 -0.30634 -0.33796 -0.37064 -0.40224 -0.43493 H 89.953416 73.265024 30.531272 13.84288 3.5549984 3.1211495 2.7189067 2.3482648 2.0092394 1.7039738 1.4292373 1.1874609 0.9781008 0.80034677 0.65554752 0.54208773 0.46131088 0.41347835 Z"
     id="1-5-9" />
  <sodipodi:namedview
     pagecolor="#ffffff"
     bordercolor="#666666"
     borderopacity="1"
     objecttolerance="10"
     gridtolerance="10"
     guidetolerance="10"
     inkscape:pageopacity="0"
     inkscape:pageshadow="2"
     inkscape:window-width="1920"
     inkscape:window-height="1042"
     id="namedview20326"
     showgrid="false"
     inkscape:zoom="1.3095539"
     inkscape:cx="310.33116"
     inkscape:cy="208.64515"
     inkscape:window-x="0"
     inkscape:window-y="38"
     inkscape:window-maximized="1"
     inkscape:current-layer="svg2"
     inkscape:document-rotation="0" />
  <!-- Working space 10 10 410 287 -->
  <!-- Title block 220 227 410 287 -->
  <metadata
     id="metadata849">
    <rdf:RDF>
      <cc:Work
         rdf:about="">
        <dc:format>image/svg+xml</dc:format>
        <dc:type
           rdf:resource="http://purl.org/dc/dcmitype/StillImage" />
        <dc:title />
      </cc:Work>
    </rdf:RDF>
  </metadata>
  <defs
     id="defs847">
    <linearGradient
       gradientUnits="userSpaceOnUse"
       id="defitem29"
       y2="485.909"
       x2="655.35199"
       y1="807.466"
       x1="649.42902">
      <stop
         id="stop92"
         offset="0.0000000"
         style="stop-color:#ffffff;stop-opacity:1.0000000;" />
      <stop
         id="stop93"
         offset="1.0000000"
         style="stop-color:#ffffff;stop-opacity:0.13756600;" />
    </linearGradient>
    <linearGradient
       xlink:href="#defitem29"
       id="linearGradient3448"
       gradientUnits="userSpaceOnUse"
       x1="649.42902"
       y1="807.466"
       x2="655.35199"
       y2="485.909" />
    <radialGradient
       gradientUnits="userSpaceOnUse"
       id="defitem28"
       fy="345.56"
       fx="1049.72"
       r="1202.15"
       cy="345.56"
       cx="1049.72">
      <stop
         id="stop89"
         offset="0.0000000"
         style="stop-color:#ffffff;stop-opacity:1.0000000;" />
      <stop
         id="stop90"
         offset="1.0000000"
         style="stop-color:#a8a8a8;stop-opacity:1.0000000;" />
    </radialGradient>
    <radialGradient
       xlink:href="#defitem28"
       id="radialGradient3446"
       gradientUnits="userSpaceOnUse"
       cx="1092.7045"
       cy="64.845284"
       fx="1089.4004"
       fy="64.844765"
       r="1202.15" />
    <linearGradient
       gradientUnits="userSpaceOnUse"
       id="defitem30"
       y2="636.70697"
       x2="980"
       y1="636.70697"
       x1="287.5">
      <stop
         id="stop95"
         offset="0.0000000"
         style="stop-color:#464646;stop-opacity:1.0000000;" />
      <stop
         id="stop96"
         offset="1.0000000"
         style="stop-color:#c2c2c2;stop-opacity:1.0000000;" />
    </linearGradient>
    <linearGradient
       xlink:href="#defitem30"
       id="linearGradient3444"
       gradientUnits="userSpaceOnUse"
       gradientTransform="matrix(1,0,0,1.016038,0,-11.73855)"
       x1="287.5"
       y1="636.70697"
       x2="980"
       y2="636.70697" />
    <linearGradient
       gradientUnits="userSpaceOnUse"
       id="defitem27"
       y2="317.44699"
       x2="985.98199"
       y1="403.18799"
       x1="921.091">
      <stop
         id="stop86"
         offset="0.0000000"
         style="stop-color:#7e7e7e;stop-opacity:1.0000000;" />
      <stop
         id="stop87"
         offset="1.0000000"
         style="stop-color:#e5e5e5;stop-opacity:1.0000000;" />
    </linearGradient>
    <linearGradient
       xlink:href="#defitem27"
       id="linearGradient3442"
       gradientUnits="userSpaceOnUse"
       x1="921.091"
       y1="403.18799"
       x2="985.98199"
       y2="317.44699" />
    <linearGradient
       gradientUnits="userSpaceOnUse"
       id="defitem26"
       y2="360.27499"
       x2="293.37"
       y1="346.30399"
       x1="530.76099">
      <stop
         id="stop83"
         offset="0.0000000"
         style="stop-color:#5f5f5f;stop-opacity:1.0000000;" />
      <stop
         id="stop84"
         offset="1.0000000"
         style="stop-color:#e5e5e5;stop-opacity:1.0000000;" />
    </linearGradient>
    <linearGradient
       xlink:href="#defitem26"
       id="linearGradient3440"
       gradientUnits="userSpaceOnUse"
       x1="530.76099"
       y1="346.30399"
       x2="293.37"
       y2="360.27499" />
    <linearGradient
       gradientUnits="userSpaceOnUse"
       id="defitem25"
       y2="337.60999"
       x2="308.75"
       y1="412.91901"
       x1="164.013">
      <stop
         id="stop80"
         offset="0.0000000"
         style="stop-color:#ffffff;stop-opacity:1.0000000;" />
      <stop
         id="stop81"
         offset="1.0000000"
         style="stop-color:#bfbfbf;stop-opacity:1.0000000;" />
    </linearGradient>
    <linearGradient
       xlink:href="#defitem25"
       id="linearGradient3438"
       gradientUnits="userSpaceOnUse"
       x1="164.013"
       y1="412.91901"
       x2="308.75"
       y2="337.60999" />
    <linearGradient
       gradientUnits="userSpaceOnUse"
       id="defitem24"
       y2="380.47198"
       x2="992.48901"
       y1="270.854"
       x1="1094.25">
      <stop
         id="stop77"
         offset="0.0000000"
         style="stop-color:#6a6a6a;stop-opacity:1.0000000;" />
      <stop
         id="stop78"
         offset="1.0000000"
         style="stop-color:#e6e6e6;stop-opacity:1.0000000;" />
    </linearGradient>
    <linearGradient
       xlink:href="#defitem24"
       id="linearGradient3436"
       gradientUnits="userSpaceOnUse"
       x1="1094.25"
       y1="270.854"
       x2="992.48901"
       y2="380.47198" />
    <linearGradient
       gradientUnits="userSpaceOnUse"
       id="defitem23"
       y2="549.37799"
       x2="1049.84"
       y1="476.465"
       x1="1170.91">
      <stop
         id="stop74"
         offset="0.0000000"
         style="stop-color:#5f5f5f;stop-opacity:1.0000000;" />
      <stop
         id="stop75"
         offset="1.0000000"
         style="stop-color:#ebebeb;stop-opacity:1.0000000;" />
    </linearGradient>
    <linearGradient
       xlink:href="#defitem23"
       id="linearGradient3434"
       gradientUnits="userSpaceOnUse"
       x1="1170.91"
       y1="476.465"
       x2="1049.84"
       y2="549.37799" />
    <linearGradient
       gradientUnits="userSpaceOnUse"
       id="defitem22"
       y2="313.276"
       x2="576.14899"
       y1="105.486"
       x1="783.716">
      <stop
         id="stop71"
         offset="0.0000000"
         style="stop-color:#5a5a5a;stop-opacity:1.0000000;" />
      <stop
         id="stop72"
         offset="1.0000000"
         style="stop-color:#c7c7c7;stop-opacity:1.0000000;" />
    </linearGradient>
    <linearGradient
       xlink:href="#defitem22"
       id="linearGradient3432"
       gradientUnits="userSpaceOnUse"
       x1="783.716"
       y1="105.486"
       x2="576.14899"
       y2="313.276" />
    <linearGradient
       gradientUnits="userSpaceOnUse"
       id="defitem21"
       y2="484.716"
       x2="128.05499"
       y1="418.698"
       x1="280.04401">
      <stop
         id="stop68"
         offset="0.0000000"
         style="stop-color:#666666;stop-opacity:1.0000000;" />
      <stop
         id="stop69"
         offset="1.0000000"
         style="stop-color:#d8d8d8;stop-opacity:1.0000000;" />
    </linearGradient>
    <linearGradient
       xlink:href="#defitem21"
       id="linearGradient3430"
       gradientUnits="userSpaceOnUse"
       x1="280.04401"
       y1="418.698"
       x2="128.05499"
       y2="484.716" />
    <linearGradient
       gradientUnits="userSpaceOnUse"
       id="defitem20"
       y2="584.40997"
       x2="220"
       y1="636.95398"
       x1="129.687">
      <stop
         id="stop65"
         offset="0.0000000"
         style="stop-color:#ffffff;stop-opacity:1.0000000;" />
      <stop
         id="stop66"
         offset="1.0000000"
         style="stop-color:#bbbbbb;stop-opacity:1.0000000;" />
    </linearGradient>
    <linearGradient
       xlink:href="#defitem20"
       id="linearGradient3428"
       gradientUnits="userSpaceOnUse"
       x1="129.687"
       y1="636.95398"
       x2="220"
       y2="584.40997" />
    <linearGradient
       gradientUnits="userSpaceOnUse"
       id="defitem19"
       y2="583.75299"
       x2="1127.98"
       y1="629.02802"
       x1="1048.72">
      <stop
         id="stop62"
         offset="0.0000000"
         style="stop-color:#5e5e5e;stop-opacity:1.0000000;" />
      <stop
         id="stop63"
         offset="1.0000000"
         style="stop-color:#ededed;stop-opacity:1.0000000;" />
    </linearGradient>
    <linearGradient
       xlink:href="#defitem19"
       id="linearGradient3426"
       gradientUnits="userSpaceOnUse"
       x1="1048.72"
       y1="629.02802"
       x2="1127.98"
       y2="583.75299" />
    <linearGradient
       gradientUnits="userSpaceOnUse"
       id="defitem18"
       y2="291.97699"
       x2="581.32397"
       y1="387.27301"
       x1="370.022">
      <stop
         id="stop59"
         offset="0.0000000"
         style="stop-color:#636363;stop-opacity:1.0000000;" />
      <stop
         id="stop60"
         offset="1.0000000"
         style="stop-color:#d6d6d6;stop-opacity:1.0000000;" />
    </linearGradient>
    <linearGradient
       xlink:href="#defitem18"
       id="linearGradient3424"
       gradientUnits="userSpaceOnUse"
       x1="370.022"
       y1="387.27301"
       x2="581.32397"
       y2="291.97699" />
    <linearGradient
       gradientUnits="userSpaceOnUse"
       id="defitem17"
       y2="351.939"
       x2="909.59399"
       y1="351.939"
       x1="732.15601">
      <stop
         id="stop56"
         offset="0.0000000"
         style="stop-color:#676767;stop-opacity:1.0000000;" />
      <stop
         id="stop57"
         offset="1.0000000"
         style="stop-color:#d3d3d3;stop-opacity:1.0000000;" />
    </linearGradient>
    <linearGradient
       xlink:href="#defitem17"
       id="linearGradient3422"
       gradientUnits="userSpaceOnUse"
       x1="732.15601"
       y1="351.939"
       x2="909.59399"
       y2="351.939" />
    <linearGradient
       gradientUnits="userSpaceOnUse"
       id="defitem16"
       y2="494.71301"
       x2="1073.01"
       y1="494.71301"
       x1="1014.43">
      <stop
         id="stop53"
         offset="0.0000000"
         style="stop-color:#666666;stop-opacity:1.0000000;" />
      <stop
         id="stop54"
         offset="1.0000000"
         style="stop-color:#dcdcdc;stop-opacity:1.0000000;" />
    </linearGradient>
    <linearGradient
       xlink:href="#defitem16"
       id="linearGradient3420"
       gradientUnits="userSpaceOnUse"
       x1="1014.43"
       y1="494.71301"
       x2="1073.01"
       y2="494.71301" />
    <linearGradient
       gradientUnits="userSpaceOnUse"
       id="defitem15"
       y2="516.37"
       x2="193.27699"
       y1="452.388"
       x1="272.59201">
      <stop
         id="stop50"
         offset="0.0000000"
         style="stop-color:#6e6e6e;stop-opacity:1.0000000;" />
      <stop
         id="stop51"
         offset="1.0000000"
         style="stop-color:#d8d8d8;stop-opacity:1.0000000;" />
    </linearGradient>
    <linearGradient
       xlink:href="#defitem15"
       id="linearGradient3418"
       gradientUnits="userSpaceOnUse"
       x1="272.59201"
       y1="452.388"
       x2="193.27699"
       y2="516.37" />
    <radialGradient
       gradientUnits="userSpaceOnUse"
       id="defitem14"
       fy="211.088"
       fx="1037.22"
       r="1164.28"
       cy="211.088"
       cx="1037.22">
      <stop
         id="stop47"
         offset="0.0000000"
         style="stop-color:#ffffff;stop-opacity:1.0000000;" />
      <stop
         id="stop48"
         offset="1.0000000"
         style="stop-color:#aaaaaa;stop-opacity:1.0000000;" />
    </radialGradient>
    <radialGradient
       xlink:href="#defitem14"
       id="radialGradient3416"
       gradientUnits="userSpaceOnUse"
       cx="1037.22"
       cy="211.088"
       fx="1037.22"
       fy="211.088"
       r="1164.28" />
    <linearGradient
       gradientUnits="userSpaceOnUse"
       id="defitem13"
       y2="686.83002"
       x2="379.241"
       y1="732.12903"
       x1="342.64999">
      <stop
         id="stop44"
         offset="0.0000000"
         style="stop-color:#ffffff;stop-opacity:1.0000000;" />
      <stop
         id="stop45"
         offset="1.0000000"
         style="stop-color:#989898;stop-opacity:1.0000000;" />
    </linearGradient>
    <linearGradient
       xlink:href="#defitem13"
       id="linearGradient3414"
       gradientUnits="userSpaceOnUse"
       x1="342.64999"
       y1="732.12903"
       x2="379.241"
       y2="686.83002" />
    <radialGradient
       gradientUnits="userSpaceOnUse"
       id="defitem12"
       fy="484.409"
       fx="632.78101"
       r="540.27899"
       cy="484.409"
       cx="632.78101">
      <stop
         id="stop41"
         offset="0.0000000"
         style="stop-color:#ffffff;stop-opacity:1.0000000;" />
      <stop
         id="stop42"
         offset="1.0000000"
         style="stop-color:#ededed;stop-opacity:1.0000000;" />
    </radialGradient>
    <radialGradient
       xlink:href="#defitem12"
       id="radialGradient3412"
       gradientUnits="userSpaceOnUse"
       cx="632.78101"
       cy="484.409"
       fx="632.78101"
       fy="484.409"
       r="540.27899" />
    <radialGradient
       xlink:href="#linearGradient3682"
       id="radialGradient3817"
       gradientUnits="userSpaceOnUse"
       gradientTransform="matrix(1.1149219,0.2722306,-0.7507171,3.0745639,-471.08629,-148.32863)"
       cx="270.58316"
       cy="33.899986"
       fx="270.58316"
       fy="33.899986"
       r="19.571428" />
    <linearGradient
       id="linearGradient3682">
      <stop
         style="stop-color:#ff6d0f;stop-opacity:1;"
         offset="0"
         id="stop3684" />
      <stop
         style="stop-color:#ff1000;stop-opacity:1;"
         offset="1"
         id="stop3686" />
    </linearGradient>
    <radialGradient
       xlink:href="#linearGradient3864"
       id="radialGradient3661"
       gradientUnits="userSpaceOnUse"
       gradientTransform="matrix(0.6186598,0.9666542,-1.0332462,0.6612786,-327.27568,-255.84136)"
       cx="282.64584"
       cy="29.149046"
       fx="282.64584"
       fy="29.149046"
       r="19.571428" />
    <linearGradient
       id="linearGradient3864">
      <stop
         id="stop3866"
         offset="0"
         style="stop-color:#71b2f8;stop-opacity:1;" />
      <stop
         id="stop3868"
         offset="1"
         style="stop-color:#002795;stop-opacity:1;" />
    </linearGradient>
  </defs>
  <path
     style="color:#000000;font-style:normal;font-variant:normal;font-weight:normal;font-stretch:normal;font-size:medium;line-height:normal;font-family:sans-serif;font-variant-ligatures:normal;font-variant-position:normal;font-variant-caps:normal;font-variant-numeric:normal;font-variant-alternates:normal;font-variant-east-asian:normal;font-feature-settings:normal;font-variation-settings:normal;text-indent:0;text-align:start;text-decoration:none;text-decoration-line:none;text-decoration-style:solid;text-decoration-color:#000000;letter-spacing:normal;word-spacing:normal;text-transform:none;writing-mode:lr-tb;direction:ltr;text-orientation:mixed;dominant-baseline:auto;baseline-shift:baseline;text-anchor:start;white-space:normal;shape-padding:0;shape-margin:0;inline-size:0;clip-rule:nonzero;display:inline;overflow:visible;visibility:visible;isolation:auto;mix-blend-mode:normal;color-interpolation:sRGB;color-interpolation-filters:linearRGB;solid-color:#000000;solid-opacity:1;vector-effect:none;fill:#000000;fill-opacity:1;fill-rule:nonzero;stroke:none;stroke-width:0.999998;stroke-linecap:butt;stroke-linejoin:miter;stroke-miterlimit:4;stroke-dasharray:none;stroke-dashoffset:0;stroke-opacity:1;color-rendering:auto;image-rendering:auto;shape-rendering:auto;text-rendering:auto;enable-background:accumulate;stop-color:#000000"
     d="m 51.978796,37.601051 -0.167451,0.07329 c 0.0042,0.0092 0.0061,0.01324 0.0061,0.01324 l 0.167451,-0.07329 c 0,0 -0.0021,-0.0042 -0.0061,-0.01324 z"
     id="path22875" />
  <path
     style="color:#000000;font-style:normal;font-variant:normal;font-weight:normal;font-stretch:normal;font-size:medium;line-height:normal;font-family:sans-serif;font-variant-ligatures:normal;font-variant-position:normal;font-variant-caps:normal;font-variant-numeric:normal;font-variant-alternates:normal;font-variant-east-asian:normal;font-feature-settings:normal;font-variation-settings:normal;text-indent:0;text-align:start;text-decoration:none;text-decoration-line:none;text-decoration-style:solid;text-decoration-color:#000000;letter-spacing:normal;word-spacing:normal;text-transform:none;writing-mode:lr-tb;direction:ltr;text-orientation:mixed;dominant-baseline:auto;baseline-shift:baseline;text-anchor:start;white-space:normal;shape-padding:0;shape-margin:0;inline-size:0;clip-rule:nonzero;display:inline;overflow:visible;visibility:visible;isolation:auto;mix-blend-mode:normal;color-interpolation:sRGB;color-interpolation-filters:linearRGB;solid-color:#000000;solid-opacity:1;vector-effect:none;fill:#000000;fill-opacity:1;fill-rule:nonzero;stroke:none;stroke-width:0.999998;stroke-linecap:butt;stroke-linejoin:miter;stroke-miterlimit:4;stroke-dasharray:none;stroke-dashoffset:0;stroke-opacity:1;color-rendering:auto;image-rendering:auto;shape-rendering:auto;text-rendering:auto;enable-background:accumulate;stop-color:#000000"
     d="m 51.97109,37.593413 -0.166426,0.07533 c 0.0042,0.0088 0.0072,0.01501 0.0092,0.01934 0.0021,0.0042 0.0031,0.0071 0.0031,0.0071 l 0.174592,-0.03768 c 0,0 -0.0092,-0.04034 -0.01124,-0.04477 -0.0021,-0.0047 -0.0052,-0.01058 -0.0092,-0.01933 z"
     id="path22865" />
  <path
     id="34-9"
     style="fill:none;stroke:#000000;stroke-width:0.793751;stroke-linecap:butt;stroke-linejoin:miter;stroke-miterlimit:4;stroke-dasharray:none"
     d="M 4.5847045,47.052265 V 28.236369 M 7.2345741,42.761956 V 32.526678 M 99.21155,47.052265 V 28.236369 M 96.56168,42.761956 V 32.526678 m -82.718899,18.75523 h 16.688768 m 0,0 h 42.733156 m 0,0 h 16.688768 m 13.445907,0 h -0.0159 -0.0484 -0.0808 -0.11291 -0.14533 -0.17748 -0.20962 -0.24178 -0.27419 -0.30607 -0.33849 -0.37037 -0.40253 -0.43441 m -96.686001,0 H 3.1207156 2.7181906 2.3478152 2.0093282 1.7032523 1.4290648 1.1872884 0.97766168 0.80018472 0.65485748 0.54194136 0.46117496 0.41281968 0.3968755 M 99.21155,28.236369 c 0.147157,-1.035567 0.310519,-1.910765 0.485905,-2.627237 0.08756,-0.357662 0.178,-0.674308 0.26896,-0.942405 0.09096,-0.267836 0.182705,-0.487854 0.274715,-0.660001 m -1.02958,4.229643 -0.239163,0.27224 -0.231844,0.278313 -0.224787,0.284149 -0.217206,0.289805 -0.209888,0.295276 -0.202047,0.300567 -0.194205,0.305649 -0.186364,0.310521 -0.178261,0.315186 -0.169897,0.319642 -0.161794,0.32389 -0.15343,0.327955 -0.144805,0.33176 -0.136179,0.335356 m 0,10.235278 -1.33356,-0.703937 -1.13465,-0.71642 -0.932604,-0.726843 -0.728204,-0.73524 -0.521715,-0.741551 -0.313656,-0.745767 -0.104551,-0.747884 0.104551,-0.747878 0.313656,-0.745768 0.521715,-0.741551 0.728204,-0.735239 0.932604,-0.726843 1.13465,-0.716415 1.33356,-0.703937 M 99.21155,47.05227 98.972387,46.780029 98.740543,46.501717 98.515756,46.217567 98.29855,45.927763 98.088662,45.632486 97.886615,45.331919 97.69241,45.026271 97.506046,44.71575 97.327785,44.400564 97.157888,44.080921 96.996094,43.757032 96.842664,43.429077 96.697859,43.097317 96.56168,42.761956 m 2.64987,4.290314 c 0.147157,1.035566 0.310519,1.910765 0.485905,2.627236 0.08756,0.357663 0.178,0.674308 0.26896,0.942405 0.09096,0.267837 0.182705,0.487849 0.274715,0.659997 m -10.287657,0 H 100.24113 M 89.953473,24.006726 v 0.896801 1.34846 1.752351 2.094091 2.361589 2.545359 2.638937 2.638943 2.545358 2.361589 2.094097 1.752346 1.348459 0.896802 m -86.398344,0 h 10.287652 m -10.287652,0 c 0.1842729,-0.345592 0.3654092,-0.876814 0.5407951,-1.590341 0.087562,-0.357194 0.1735562,-0.760877 0.2556295,-1.201825 0.081812,-0.440473 0.1594418,-0.919629 0.2331509,-1.437477 m 2.6498696,-4.290309 -0.1361789,0.335356 -0.1448045,0.331759 -0.15343,0.327955 -0.1617942,0.32389 -0.1698969,0.319648 -0.1782611,0.315186 -0.1863639,0.310516 -0.1942053,0.305653 -0.2020467,0.300562 -0.209888,0.295282 -0.2172067,0.289804 -0.2247868,0.284145 -0.231844,0.278312 -0.2391626,0.272241 m 2.6498696,-14.525587 1.3335603,0.703937 1.1346502,0.71642 0.9326034,0.726843 0.728205,0.735239 0.521714,0.741551 0.313656,0.745768 0.104552,0.747878 -0.104552,0.747884 -0.313656,0.745767 -0.521714,0.741551 -0.728205,0.73524 -0.9326034,0.726843 -1.1346502,0.71642 -1.3335603,0.703937 m 0,-10.235278 L 7.0983952,32.191322 6.9535907,31.859562 6.8001607,31.531607 6.6383665,31.207717 6.4684696,30.888075 6.2902085,30.572889 6.1038446,30.262368 5.9096393,29.956719 5.7075926,29.656152 5.4977046,29.360876 5.2804979,29.071071 5.0557111,28.786922 4.8238671,28.508609 4.5847045,28.236369 M 3.555129,24.006726 c 0.1842729,0.345597 0.3654092,0.876814 0.5407951,1.590341 0.087562,0.357193 0.1735562,0.760876 0.2556295,1.201824 0.081812,0.440479 0.1594418,0.919629 0.2331509,1.437478 m 9.2580765,23.045539 v -0.896802 -1.348459 -1.752351 -2.094092 -2.361589 -2.545358 -2.638943 -2.638937 -2.545359 -2.361589 -2.094091 -1.752351 -1.34846 -0.896801 m -13.4459055,0 H 0.4128197 0.461175 0.5419414 0.65485752 0.80018476 0.97766172 1.1872884 1.4290648 1.7032523 2.0093282 2.3478152 2.7181906 3.1207156 3.555129 m 96.686001,0 h 0.43441 0.40253 0.37037 0.33849 0.30607 0.27419 0.24178 0.20962 0.17748 0.14533 0.11291 0.0808 0.0484 0.0159 m -13.445907,0 h 10.287657 m -26.976425,0 h 16.688768 m -59.421924,0 h 42.733156 m -59.421924,0 h 16.688768 m -26.97642,0 H 13.842781 M 0.3968755,51.281908 V 24.006726 M 103.39938,51.281908 V 24.006726" />
  <path
     style="color:#000000;font-style:normal;font-variant:normal;font-weight:normal;font-stretch:normal;font-size:medium;line-height:normal;font-family:sans-serif;font-variant-ligatures:normal;font-variant-position:normal;font-variant-caps:normal;font-variant-numeric:normal;font-variant-alternates:normal;font-variant-east-asian:normal;font-feature-settings:normal;font-variation-settings:normal;text-indent:0;text-align:start;text-decoration:none;text-decoration-line:none;text-decoration-style:solid;text-decoration-color:#000000;letter-spacing:normal;word-spacing:normal;text-transform:none;writing-mode:lr-tb;direction:ltr;text-orientation:mixed;dominant-baseline:auto;baseline-shift:baseline;text-anchor:start;white-space:normal;shape-padding:0;shape-margin:0;inline-size:0;clip-rule:nonzero;display:inline;overflow:visible;visibility:visible;isolation:auto;mix-blend-mode:normal;color-interpolation:sRGB;color-interpolation-filters:linearRGB;solid-color:#000000;solid-opacity:1;vector-effect:none;fill:#c8c8c8;fill-opacity:1;fill-rule:nonzero;stroke:none;stroke-width:0.350001;stroke-linecap:butt;stroke-linejoin:miter;stroke-miterlimit:4;stroke-dasharray:none;stroke-dashoffset:0;stroke-opacity:1;color-rendering:auto;image-rendering:auto;shape-rendering:auto;text-rendering:auto;enable-background:accumulate;stop-color:#000000"
     d="M 51.2536,0.95729631 C 42.706302,1.0929735 34.25089,4.2570934 27.764961,9.7410211 23.603629,13.239642 20.242823,17.655384 17.995948,22.569758 c -0.255598,-0.03424 -0.416508,0.156724 -0.394161,0.401055 0.06177,0.400141 -0.491582,0.151277 -0.735983,0.228388 -0.651704,0.01161 -1.303428,0.02249 -1.955117,0.03471 0.08937,0.258626 -0.0974,0.490357 -0.03398,0.763282 0,2.319069 0,4.638138 0,6.957212 -0.266268,0.03605 -0.676379,-0.0696 -0.857353,0.05048 0.0063,0.229378 -0.144914,0.428037 -0.09004,0.672225 0,4.195974 0,8.391936 0,12.58791 0.281077,-0.125167 0.517893,0.159209 0.807335,0.0424 0.299301,0.02022 0.0665,0.56463 0.140058,0.80723 0,2.293915 0,4.587825 0,6.881746 0.277031,-0.123515 0.509445,0.150974 0.795326,0.04431 0.636597,0.01114 1.273193,0.02239 1.909784,0.03348 0.03634,0.404683 0.07271,0.809366 0.109042,1.214029 0.161523,-0.203319 0.347976,-0.797099 0.46222,-0.260425 3.41362,7.314057 9.358399,13.444265 16.61564,17.145605 7.1488,3.677277 15.527649,4.968213 23.47479,3.612186 8.135032,-1.36359 15.767566,-5.475898 21.293566,-11.516432 2.627636,-2.854389 4.794209,-6.11991 6.395794,-9.635228 0.249649,0.162896 0.429829,-0.226569 0.387161,-0.438542 0.04783,-0.269588 0.578083,-0.06083 0.822406,-0.135585 0.619564,-0.01099 1.239144,-0.02146 1.858693,-0.03296 -0.09983,-0.253863 0.09275,-0.479818 0.02802,-0.747917 0,-2.323865 0,-4.647735 0,-6.971604 0.301795,0 0.603584,0 0.905378,0 -0.09107,-0.25936 0.108442,-0.485716 0.04099,-0.75973 0,-4.183285 0,-8.36658 0,-12.549873 -0.263487,0.08492 -0.492529,-0.109404 -0.770318,-0.04339 -0.357599,0.04222 -0.09664,-0.524953 -0.176076,-0.756771 0,-2.31106 0,-4.622118 0,-6.933177 -0.259409,0.09024 -0.485231,-0.102837 -0.758269,-0.04379 -0.652284,-0.0113 -1.304562,-0.02265 -1.956841,-0.03399 -0.06265,-0.128728 -0.331256,-0.199046 -0.364718,-0.528361 C 82.683651,15.430191 76.968265,9.3095844 69.925452,5.5052828 64.245567,2.4197501 57.739523,0.82853534 51.253636,0.95731174 Z"
     id="path20295-8" />
  <g
     id="Ortho_0_0"
     transform="matrix(0,0.26059202,-0.26137992,0,51.792008,37.644317)"
     style="stroke-width:3.04135;stroke-miterlimit:4;stroke-dasharray:none">
    <g
       fill="none"
       stroke="#000000"
       stroke-linecap="butt"
       stroke-linejoin="miter"
       stroke-width="0.7"
       transform="scale(1,-1)"
       id="g20159"
       style="stroke-width:3.04135;stroke-miterlimit:4;stroke-dasharray:none">
      <path
         id="1"
         d="m -54.6463,-141.896 -0.1797,10.298"
         style="stroke-width:3.04135;stroke-miterlimit:4;stroke-dasharray:none" />
      <path
         id="2"
         d="M -54.6463,142.708 -54.826,132.411"
         style="stroke-width:3.04135;stroke-miterlimit:4;stroke-dasharray:none" />
      <path
         id="3"
         d="m 24,142.708 v 3.698"
         style="stroke-width:3.04135;stroke-miterlimit:4;stroke-dasharray:none" />
      <path
         id="4"
         d="m -24,142.708 v 3.698"
         style="stroke-width:3.04135;stroke-miterlimit:4;stroke-dasharray:none" />
      <path
         id="5"
         d="m 24,-145.594 v 3.698"
         style="stroke-width:3.04135;stroke-miterlimit:4;stroke-dasharray:none" />
      <path
         id="6"
         d="m -24,-145.594 v 3.698"
         style="stroke-width:3.04135;stroke-miterlimit:4;stroke-dasharray:none" />
    </g>
    <g
       fill="none"
       stroke="#000000"
       stroke-linecap="butt"
       stroke-linejoin="miter"
       stroke-width="0.7"
       transform="scale(1,-1)"
       id="g20297"
       style="stroke-width:3.04135;stroke-miterlimit:4;stroke-dasharray:none">
      <path
         d="m 1.55567,-141.896 q -1.55567,-0.014 -3.11134,0"
         id="path20161"
         style="stroke-width:3.04135;stroke-miterlimit:4;stroke-dasharray:none" />
      <path
         d="m -1.55567,142.708 q 1.55567,0.015 3.11134,0"
         id="path20163"
         style="stroke-width:3.04135;stroke-miterlimit:4;stroke-dasharray:none" />
      <path
         d="M -53.9422,130.283 A 140.633,140.633 0 0 1 0,-140.227"
         id="path20165"
         style="stroke-width:3.04135;stroke-miterlimit:4;stroke-dasharray:none" />
      <path
         d="m -54.826,132.411 q -3e-4,-0.016 0.0115,-0.028"
         id="path20167"
         style="stroke-width:3.04135;stroke-miterlimit:4;stroke-dasharray:none" />
      <path
         d="m -54.826,132.411 a 142.938,142.938 0 0 1 0,-264.009"
         id="path20169"
         style="stroke-width:3.04135;stroke-miterlimit:4;stroke-dasharray:none" />
      <path
         d="m -54.826,-131.598 c -0.0027,0.102 0.3526,0.057 1.0657,-0.134 0.7165,-0.191 1.7813,-0.521 3.1586,-0.953 0.6898,-0.217 1.461,-0.458 2.3134,-0.722 0.8554,-0.265 1.7836,-0.547 2.7844,-0.845 1.9957,-0.593 4.2467,-1.231 6.7757,-1.88 1.2645,-0.324 2.5984,-0.651 3.9798,-0.969 1.3815,-0.32 2.8097,-0.629 4.2847,-0.928 1.4739,-0.299 2.9964,-0.583 4.5674,-0.854 1.5738,-0.271 3.1928,-0.522 4.8569,-0.755 1.6622,-0.231 3.3636,-0.44 5.0812,-0.621 1.7169,-0.182 3.4523,-0.335 5.2064,-0.46 1.75412,-0.125 3.53137,-0.219 5.33173,-0.284 1.80107,-0.064 3.6274,-0.097 5.4393297,-0.097 3.6238603,0 7.1901103,0.13 10.7275403,0.381 1.7687,0.126 3.5301,0.282 5.2572,0.464 1.7284,0.184 3.4186,0.391 5.0706,0.622 1.6497,0.231 3.2606,0.481 4.8326,0.752 1.5753,0.271 3.1082,0.558 4.5988,0.861 1.4907,0.302 2.925,0.613 4.303,0.933 1.3746,0.318 2.6883,0.638 3.9412,0.961 1.2542,0.323 2.4495,0.643 3.5857,0.961 1.1359,0.317 2.2118,0.629 3.2096,0.925 1.9957,0.593 3.6793,1.124 5.0572,1.555 1.3779,0.432 2.4501,0.764 3.1619,0.954 0.7106,0.191 1.0644,0.235 1.0614,0.133"
         id="path20171"
         style="stroke-width:3.04135;stroke-miterlimit:4;stroke-dasharray:none" />
      <path
         d="m 54.826,-131.598 a 142.938,142.938 0 0 1 0,264.009"
         id="path20173"
         style="stroke-width:3.04135;stroke-miterlimit:4;stroke-dasharray:none" />
      <path
         d="m -54.8145,132.383 c 0.0656,-0.063 0.417,-0.009 1.0542,0.162 0.7165,0.191 1.7813,0.521 3.1586,0.953 0.6898,0.217 1.461,0.457 2.3134,0.722 0.8554,0.265 1.7836,0.547 2.7844,0.845 1.9957,0.593 4.2467,1.231 6.7757,1.879 1.2645,0.325 2.5984,0.651 3.9798,0.97 1.3815,0.319 2.8097,0.629 4.2847,0.928 1.4739,0.298 2.9964,0.583 4.5674,0.853 1.5738,0.271 3.1928,0.523 4.8569,0.756 1.6622,0.231 3.3636,0.44 5.0812,0.621 1.7169,0.182 3.4523,0.335 5.2064,0.459 1.75412,0.125 3.53137,0.22 5.33173,0.285 1.80107,0.064 3.6274,0.096 5.4393297,0.097 3.6238603,0 7.1901103,-0.13 10.7275403,-0.381 1.7687,-0.126 3.5301,-0.282 5.2572,-0.465 1.7284,-0.183 3.4186,-0.39 5.0706,-0.621 1.6497,-0.231 3.2606,-0.482 4.8326,-0.752 1.5753,-0.272 3.1082,-0.559 4.5988,-0.861 1.4907,-0.303 2.925,-0.614 4.303,-0.933 1.3746,-0.318 2.6883,-0.639 3.9412,-0.961 1.2542,-0.323 2.4495,-0.643 3.5857,-0.961 1.1359,-0.317 2.2118,-0.629 3.2096,-0.926 1.9957,-0.593 3.6793,-1.123 5.0572,-1.555 1.3779,-0.431 2.4501,-0.764 3.1619,-0.953 0.7106,-0.191 1.0644,-0.235 1.0614,-0.133"
         id="path20175"
         style="stroke-width:3.04135;stroke-miterlimit:4;stroke-dasharray:none" />
      <path
         d="m 0,-140.227 a 140.633,140.633 0 1 1 -53.9422,270.51"
         id="path20177"
         style="stroke-width:3.04135;stroke-miterlimit:4;stroke-dasharray:none" />
      <circle
         cx="0"
         cy="0.40636301"
         r="136"
         id="circle20179"
         style="stroke-width:3.04135;stroke-miterlimit:4;stroke-dasharray:none" />
      <path
         d="M 0,135.358 A 134.952,134.952 0 0 0 0,-134.545"
         id="path20181"
         style="stroke-width:3.04135;stroke-miterlimit:4;stroke-dasharray:none" />
      <path
         d="M 0,-134.545 A 134.952,134.952 0 0 0 0,135.358"
         id="path20183"
         style="stroke-width:3.04135;stroke-miterlimit:4;stroke-dasharray:none" />
      <path
         id="13"
         d="M 82.4207,-0.27228 71.7178,-40.2163"
         style="stroke-width:3.04135;stroke-miterlimit:4;stroke-dasharray:none" />
      <path
         id="14"
         d="M 131.707,-0.27228 H 82.4207"
         style="stroke-width:3.04135;stroke-miterlimit:4;stroke-dasharray:none" />
      <path
         d="m 114.401,-64.8596 a 131.709,131.709 0 0 1 17.306,64.58732"
         id="path20187"
         style="stroke-width:3.04135;stroke-miterlimit:4;stroke-dasharray:none" />
      <path
         id="16"
         d="M 71.7178,-40.2163 114.401,-64.8596"
         style="stroke-width:3.04135;stroke-miterlimit:4;stroke-dasharray:none" />
      <path
         id="17"
         d="M 17.5586,-28.6488 41.0955,-69.4159"
         style="stroke-width:3.04135;stroke-miterlimit:4;stroke-dasharray:none" />
      <path
         id="18"
         d="M 33.9418,-0.27228 17.5586,-28.6488"
         style="stroke-width:3.04135;stroke-miterlimit:4;stroke-dasharray:none" />
      <path
         id="19"
         d="M 81.0156,-0.27228 H 33.9418"
         style="stroke-width:3.04135;stroke-miterlimit:4;stroke-dasharray:none" />
      <path
         id="20"
         d="M 70.319,-40.1923 81.0156,-0.27228"
         style="stroke-width:3.04135;stroke-miterlimit:4;stroke-dasharray:none" />
      <path
         id="21"
         d="M 41.0955,-69.4159 70.319,-40.1923"
         style="stroke-width:3.04135;stroke-miterlimit:4;stroke-dasharray:none" />
      <path
         id="22"
         d="M 41.7981,-70.6328 66.4414,-113.316"
         style="stroke-width:3.04135;stroke-miterlimit:4;stroke-dasharray:none" />
      <path
         id="23"
         d="M 71.0391,-41.3917 41.7981,-70.6328"
         style="stroke-width:3.04135;stroke-miterlimit:4;stroke-dasharray:none" />
      <path
         id="24"
         d="M 113.723,-66.0351 71.0391,-41.3917"
         style="stroke-width:3.04135;stroke-miterlimit:4;stroke-dasharray:none" />
      <path
         d="m 66.4414,-113.316 a 131.709,131.709 0 0 1 47.2816,47.2809"
         id="path20198"
         style="stroke-width:3.04135;stroke-miterlimit:4;stroke-dasharray:none" />
      <path
         id="26"
         d="M 0.678659,-82.0144 0.680253,-131.301"
         style="stroke-width:3.04135;stroke-miterlimit:4;stroke-dasharray:none" />
      <path
         id="27"
         d="M 40.6226,-71.3114 0.678659,-82.0144"
         style="stroke-width:3.04135;stroke-miterlimit:4;stroke-dasharray:none" />
      <path
         id="28"
         d="M 65.266,-113.995 40.6226,-71.3114"
         style="stroke-width:3.04135;stroke-miterlimit:4;stroke-dasharray:none" />
      <path
         d="M 0.680253,-131.301 A 131.709,131.709 0 0 1 65.266,-113.995"
         id="path20203"
         style="stroke-width:3.04135;stroke-miterlimit:4;stroke-dasharray:none" />
      <path
         id="30"
         d="M -39.9201,-70.0945 0,-80.7911"
         style="stroke-width:3.04135;stroke-miterlimit:4;stroke-dasharray:none" />
      <path
         id="31"
         d="M -16.3832,-29.3274 -39.9201,-70.0945"
         style="stroke-width:3.04135;stroke-miterlimit:4;stroke-dasharray:none" />
      <path
         id="32"
         d="M 16.3832,-29.3274 H -16.3832"
         style="stroke-width:3.04135;stroke-miterlimit:4;stroke-dasharray:none" />
      <path
         id="33"
         d="M 39.9201,-70.0945 16.3832,-29.3274"
         style="stroke-width:3.04135;stroke-miterlimit:4;stroke-dasharray:none" />
      <path
         id="34"
         d="m 0,-80.7911 39.9201,10.6966"
         style="stroke-width:3.04135;stroke-miterlimit:4;stroke-dasharray:none" />
      <path
         id="35"
         d="M -40.6226,-71.3114 -65.266,-113.995"
         style="stroke-width:3.04135;stroke-miterlimit:4;stroke-dasharray:none" />
      <path
         id="36"
         d="M -0.678625,-82.0144 -40.6226,-71.3114"
         style="stroke-width:3.04135;stroke-miterlimit:4;stroke-dasharray:none" />
      <path
         id="37"
         d="m -0.677032,-131.301 -0.001593,49.2866"
         style="stroke-width:3.04135;stroke-miterlimit:4;stroke-dasharray:none" />
      <path
         d="m -65.266,-113.995 a 131.709,131.709 0 0 1 64.588968,-17.306"
         id="path20213"
         style="stroke-width:3.04135;stroke-miterlimit:4;stroke-dasharray:none" />
      <path
         id="39"
         d="M -71.0391,-41.3917 -113.723,-66.0351"
         style="stroke-width:3.04135;stroke-miterlimit:4;stroke-dasharray:none" />
      <path
         id="40"
         d="m -41.7981,-70.6328 -29.241,29.2411"
         style="stroke-width:3.04135;stroke-miterlimit:4;stroke-dasharray:none" />
      <path
         id="41"
         d="m -66.4414,-113.316 24.6433,42.6832"
         style="stroke-width:3.04135;stroke-miterlimit:4;stroke-dasharray:none" />
      <path
         d="m -113.723,-66.0351 a 131.709,131.709 0 0 1 47.2816,-47.2809"
         id="path20218"
         style="stroke-width:3.04135;stroke-miterlimit:4;stroke-dasharray:none" />
      <path
         id="43"
         d="M -71.7178,-40.2163 -82.4207,-0.27228"
         style="stroke-width:3.04135;stroke-miterlimit:4;stroke-dasharray:none" />
      <path
         id="44"
         d="m -114.401,-64.8596 42.6832,24.6433"
         style="stroke-width:3.04135;stroke-miterlimit:4;stroke-dasharray:none" />
      <path
         d="m -131.707,-0.27228 a 131.709,131.709 0 0 1 17.306,-64.58732"
         id="path20222"
         style="stroke-width:3.04135;stroke-miterlimit:4;stroke-dasharray:none" />
      <path
         id="46"
         d="M -82.4207,-0.27228 H -131.707"
         style="stroke-width:3.04135;stroke-miterlimit:4;stroke-dasharray:none" />
      <path
         id="47"
         d="M -81.0156,-0.27228 -70.319,-40.1923"
         style="stroke-width:3.04135;stroke-miterlimit:4;stroke-dasharray:none" />
      <path
         id="48"
         d="M -33.9418,-0.27228 H -81.0156"
         style="stroke-width:3.04135;stroke-miterlimit:4;stroke-dasharray:none" />
      <path
         id="49"
         d="M -17.5586,-28.6488 -33.9418,-0.27228"
         style="stroke-width:3.04135;stroke-miterlimit:4;stroke-dasharray:none" />
      <path
         id="50"
         d="m -41.0955,-69.4159 23.5369,40.7671"
         style="stroke-width:3.04135;stroke-miterlimit:4;stroke-dasharray:none" />
      <path
         id="51"
         d="m -70.319,-40.1923 29.2235,-29.2236"
         style="stroke-width:3.04135;stroke-miterlimit:4;stroke-dasharray:none" />
      <path
         id="52"
         d="M 16.3832,28.7829 H -16.3832"
         style="stroke-width:3.04135;stroke-miterlimit:4;stroke-dasharray:none" />
      <path
         id="53"
         d="M 32.7664,0.406363 16.3832,28.7829"
         style="stroke-width:3.04135;stroke-miterlimit:4;stroke-dasharray:none" />
      <path
         id="54"
         d="M 16.3832,-27.9701 32.7664,0.406363"
         style="stroke-width:3.04135;stroke-miterlimit:4;stroke-dasharray:none" />
      <path
         id="55"
         d="M -16.3832,-27.9701 H 16.3832"
         style="stroke-width:3.04135;stroke-miterlimit:4;stroke-dasharray:none" />
      <path
         id="56"
         d="M -32.7664,0.406363 -16.3832,-27.9701"
         style="stroke-width:3.04135;stroke-miterlimit:4;stroke-dasharray:none" />
      <path
         id="57"
         d="M -16.3832,28.7829 -32.7664,0.406363"
         style="stroke-width:3.04135;stroke-miterlimit:4;stroke-dasharray:none" />
      <path
         id="58"
         d="M -17.5586,29.4615 -41.0955,70.2286"
         style="stroke-width:3.04135;stroke-miterlimit:4;stroke-dasharray:none" />
      <path
         id="59"
         d="m -33.9418,1.085 16.3832,28.3765"
         style="stroke-width:3.04135;stroke-miterlimit:4;stroke-dasharray:none" />
      <path
         id="60"
         d="m -81.0156,1.085 h 47.0738"
         style="stroke-width:3.04135;stroke-miterlimit:4;stroke-dasharray:none" />
      <path
         id="61"
         d="M -70.319,41.0051 -81.0156,1.085"
         style="stroke-width:3.04135;stroke-miterlimit:4;stroke-dasharray:none" />
      <path
         id="62"
         d="M -41.0955,70.2286 -70.319,41.0051"
         style="stroke-width:3.04135;stroke-miterlimit:4;stroke-dasharray:none" />
      <path
         id="63"
         d="M -71.7178,41.029 -114.4,65.6737"
         style="stroke-width:3.04135;stroke-miterlimit:4;stroke-dasharray:none" />
      <path
         id="64"
         d="m -82.4207,1.085 10.7029,39.944"
         style="stroke-width:3.04135;stroke-miterlimit:4;stroke-dasharray:none" />
      <path
         id="65"
         d="m -131.707,1.085 h 49.2863"
         style="stroke-width:3.04135;stroke-miterlimit:4;stroke-dasharray:none" />
      <path
         d="M -114.4,65.6737 A 131.709,131.709 0 0 1 -131.707,1.085"
         id="path20244"
         style="stroke-width:3.04135;stroke-miterlimit:4;stroke-dasharray:none" />
      <path
         id="67"
         d="M -41.7981,71.4455 -66.4414,114.129"
         style="stroke-width:3.04135;stroke-miterlimit:4;stroke-dasharray:none" />
      <path
         id="68"
         d="m -71.0391,42.2045 29.241,29.241"
         style="stroke-width:3.04135;stroke-miterlimit:4;stroke-dasharray:none" />
      <path
         id="69"
         d="M -113.722,66.8492 -71.0391,42.2045"
         style="stroke-width:3.04135;stroke-miterlimit:4;stroke-dasharray:none" />
      <path
         d="M -66.4414,114.129 A 131.709,131.709 0 0 1 -113.722,66.8492"
         id="path20249"
         style="stroke-width:3.04135;stroke-miterlimit:4;stroke-dasharray:none" />
      <path
         id="71"
         d="M -0.678642,82.8271 V 132.114"
         style="stroke-width:3.04135;stroke-miterlimit:4;stroke-dasharray:none" />
      <path
         id="72"
         d="m -40.6226,72.1241 39.943958,10.703"
         style="stroke-width:3.04135;stroke-miterlimit:4;stroke-dasharray:none" />
      <path
         id="73"
         d="M -65.266,114.808 -40.6226,72.1241"
         style="stroke-width:3.04135;stroke-miterlimit:4;stroke-dasharray:none" />
      <path
         d="M -0.678642,132.114 A 131.709,131.709 0 0 1 -65.266,114.808"
         id="path20254"
         style="stroke-width:3.04135;stroke-miterlimit:4;stroke-dasharray:none" />
      <path
         id="75"
         d="M 40.6226,72.1241 65.266,114.808"
         style="stroke-width:3.04135;stroke-miterlimit:4;stroke-dasharray:none" />
      <path
         id="76"
         d="M 0.678642,82.8271 40.6226,72.1241"
         style="stroke-width:3.04135;stroke-miterlimit:4;stroke-dasharray:none" />
      <path
         id="77"
         d="M 0.678642,132.114 V 82.8271"
         style="stroke-width:3.04135;stroke-miterlimit:4;stroke-dasharray:none" />
      <path
         d="M 65.266,114.808 A 131.709,131.709 0 0 1 0.678642,132.114"
         id="path20259"
         style="stroke-width:3.04135;stroke-miterlimit:4;stroke-dasharray:none" />
      <path
         id="79"
         d="M 70.319,41.0051 41.0955,70.2286"
         style="stroke-width:3.04135;stroke-miterlimit:4;stroke-dasharray:none" />
      <path
         id="80"
         d="M 81.0156,1.085 70.319,41.0051"
         style="stroke-width:3.04135;stroke-miterlimit:4;stroke-dasharray:none" />
      <path
         id="81"
         d="M 33.9418,1.085 H 81.0156"
         style="stroke-width:3.04135;stroke-miterlimit:4;stroke-dasharray:none" />
      <path
         id="82"
         d="M 17.5586,29.4615 33.9418,1.085"
         style="stroke-width:3.04135;stroke-miterlimit:4;stroke-dasharray:none" />
      <path
         id="83"
         d="M 41.0955,70.2286 17.5586,29.4615"
         style="stroke-width:3.04135;stroke-miterlimit:4;stroke-dasharray:none" />
      <path
         id="84"
         d="M 39.9201,70.9072 0,81.6038"
         style="stroke-width:3.04135;stroke-miterlimit:4;stroke-dasharray:none" />
      <path
         id="85"
         d="m 16.3832,30.1402 23.5369,40.767"
         style="stroke-width:3.04135;stroke-miterlimit:4;stroke-dasharray:none" />
      <path
         id="86"
         d="M -16.3832,30.1402 H 16.3832"
         style="stroke-width:3.04135;stroke-miterlimit:4;stroke-dasharray:none" />
      <path
         id="87"
         d="m -39.9201,70.9072 23.5369,-40.767"
         style="stroke-width:3.04135;stroke-miterlimit:4;stroke-dasharray:none" />
      <path
         id="88"
         d="M 0,81.6038 -39.9201,70.9072"
         style="stroke-width:3.04135;stroke-miterlimit:4;stroke-dasharray:none" />
      <path
         id="89"
         d="M 114.401,65.6723 71.7178,41.029"
         style="stroke-width:3.04135;stroke-miterlimit:4;stroke-dasharray:none" />
      <path
         d="M 131.707,1.085 A 131.709,131.709 0 0 1 114.401,65.6723"
         id="path20272"
         style="stroke-width:3.04135;stroke-miterlimit:4;stroke-dasharray:none" />
      <path
         id="91"
         d="M 82.4207,1.085 H 131.707"
         style="stroke-width:3.04135;stroke-miterlimit:4;stroke-dasharray:none" />
      <path
         id="92"
         d="M 71.7178,41.029 82.4207,1.085"
         style="stroke-width:3.04135;stroke-miterlimit:4;stroke-dasharray:none" />
      <path
         id="93"
         d="M 71.0391,42.2045 113.723,66.8478"
         style="stroke-width:3.04135;stroke-miterlimit:4;stroke-dasharray:none" />
      <path
         id="94"
         d="m 41.7981,71.4455 29.241,-29.241"
         style="stroke-width:3.04135;stroke-miterlimit:4;stroke-dasharray:none" />
      <path
         id="95"
         d="M 66.4414,114.129 41.7981,71.4455"
         style="stroke-width:3.04135;stroke-miterlimit:4;stroke-dasharray:none" />
      <path
         d="M 113.723,66.8478 A 131.709,131.709 0 0 1 66.4414,114.129"
         id="path20279"
         style="stroke-width:3.04135;stroke-miterlimit:4;stroke-dasharray:none" />
      <path
         d="m -54.6463,-141.896 h 1.3701 4.0416 6.5104 8.6528 10.3613 11.5502 H 0 h 12.1599 11.5502 10.3613 8.6528 6.5104 4.0416 1.3701"
         id="path20281"
         style="stroke-width:3.04135;stroke-miterlimit:4;stroke-dasharray:none" />
      <path
         d="m 54.6463,-141.896 0.1797,10.298"
         id="path20283"
         style="stroke-width:3.04135;stroke-miterlimit:4;stroke-dasharray:none" />
      <path
         d="m -54.6463,142.708 h 1.3701 4.0416 6.5104 8.6528 10.3613 11.5502 H 0 h 12.1599 11.5502 10.3613 8.6528 6.5104 4.0416 1.3701"
         id="path20285"
         style="stroke-width:3.04135;stroke-miterlimit:4;stroke-dasharray:none" />
      <path
         d="M 54.6463,142.708 54.826,132.411"
         id="path20287"
         style="stroke-width:3.04135;stroke-miterlimit:4;stroke-dasharray:none" />
      <path
         d="M 24,146.406 H 23.8613 23.4468 22.7612 21.8125 20.6117 19.1726 17.5119 15.6488 13.6048 11.4035 9.07043 6.63249 4.11788 1.55567"
         id="path20289"
         style="stroke-width:3.04135;stroke-miterlimit:4;stroke-dasharray:none" />
      <path
         d="m 1.55567,146.406 h -2.80234 -2.78534 -2.73037 -2.63816 -2.50996 -2.3476 -2.1532 -1.9295 -1.6794 -1.4064 -1.1142 -0.807 -0.4886 H -24"
         id="path20291"
         style="stroke-width:3.04135;stroke-miterlimit:4;stroke-dasharray:none" />
      <path
         d="m 1.55567,-145.594 h -2.80234 -2.78534 -2.73037 -2.63816 -2.50996 -2.3476 -2.1532 -1.9295 -1.6794 -1.4064 -1.1142 -0.807 -0.4886 H -24"
         id="path20293"
         style="stroke-width:3.04135;stroke-miterlimit:4;stroke-dasharray:none" />
      <path
         d="M 24,-145.594 H 23.8613 23.4468 22.7612 21.8125 20.6117 19.1726 17.5119 15.6488 13.6048 11.4035 9.07043 6.63249 4.11788 1.55567"
         id="path20295"
         style="stroke-width:3.04135;stroke-miterlimit:4;stroke-dasharray:none" />
    </g>
  </g>
  <rect
     x="20.770664"
     y="22.468794"
     class="st2"
     width="62.254929"
     height="30.351046"
     id="rect48-9"
     style="clip-rule:evenodd;display:inline;fill:#ffffff;fill-rule:evenodd;stroke:#000000;stroke-width:0.264583;stroke-miterlimit:4;stroke-dasharray:none;stroke-opacity:1" />
  <text
     xml:space="preserve"
     style="font-style:normal;font-variant:normal;font-weight:normal;font-stretch:normal;font-size:7.36559px;line-height:124%;font-family:sans-serif;-inkscape-font-specification:'sans-serif, Normal';font-variant-ligatures:normal;font-variant-caps:normal;font-variant-numeric:normal;font-variant-east-asian:normal;letter-spacing:0px;word-spacing:0px;display:inline;fill:#000000;fill-opacity:1;stroke:none;stroke-width:0.264583px;stroke-linecap:butt;stroke-linejoin:miter;stroke-opacity:1"
     x="37.230728"
     y="40.382359"
     id="text8541"
     transform="scale(1.0015106,0.99849168)"><tspan
       sodipodi:role="line"
       id="tspan8539"
       x="37.230728"
       y="40.382359"
       style="font-style:normal;font-variant:normal;font-weight:normal;font-stretch:normal;font-size:7.36559px;font-family:sans-serif;-inkscape-font-specification:'sans-serif, Normal';font-variant-ligatures:normal;font-variant-caps:normal;font-variant-numeric:normal;font-variant-east-asian:normal;stroke-width:0.264583px">SPIIDER</tspan></text>
</svg>
