<?xml version="1.0" encoding="UTF-8" standalone="no"?>
<svg
   xmlns:dc="http://purl.org/dc/elements/1.1/"
   xmlns:cc="http://creativecommons.org/ns#"
   xmlns:rdf="http://www.w3.org/1999/02/22-rdf-syntax-ns#"
   xmlns:svg="http://www.w3.org/2000/svg"
   xmlns="http://www.w3.org/2000/svg"
   xmlns:sodipodi="http://sodipodi.sourceforge.net/DTD/sodipodi-0.dtd"
   xmlns:inkscape="http://www.inkscape.org/namespaces/inkscape"
   version="1.1"
   width="103.79625mm"
   height="28.068932mm"
   viewBox="0 0 103.79625 28.068932"
   id="svg2698"
   sodipodi:docname="yoke.svg"
   inkscape:version="1.0.2 (e86c8708, 2021-01-15)">
  <metadata
     id="metadata2704">
    <rdf:RDF>
      <cc:Work
         rdf:about="">
        <dc:format>image/svg+xml</dc:format>
        <dc:type
           rdf:resource="http://purl.org/dc/dcmitype/StillImage" />
      </cc:Work>
    </rdf:RDF>
  </metadata>
  <defs
     id="defs2702" />
  <sodipodi:namedview
     pagecolor="#ffffff"
     bordercolor="#666666"
     borderopacity="1"
     objecttolerance="10"
     gridtolerance="10"
     guidetolerance="10"
     inkscape:pageopacity="0"
     inkscape:pageshadow="2"
     inkscape:window-width="1248"
     inkscape:window-height="1174"
     id="namedview2700"
     showgrid="false"
     inkscape:zoom="2.6627512"
     inkscape:cx="197.69548"
     inkscape:cy="-55.419542"
     inkscape:window-x="0"
     inkscape:window-y="25"
     inkscape:window-maximized="0"
     inkscape:current-layer="svg2698"
     inkscape:document-rotation="0" />
  <!-- Working space 20 10 831 584 -->
  <!-- Title block 651 524 831 584 -->
  <path
     id="34-9"
     style="fill:none;stroke:#000000;stroke-width:0.793751;stroke-linecap:butt;stroke-linejoin:miter;stroke-miterlimit:4;stroke-dasharray:none"
     d="M 4.5846955,23.442406 V 4.6265155 m 2.64987,14.5255905 V 8.9168255 M 99.211546,23.442406 V 4.6265155 M 96.561676,19.152106 V 8.9168255 m -82.7189,18.7552305 h 16.68877 m 0,0 h 42.73315 m 0,0 h 16.68877 m 13.445914,0 h -0.0159 -0.0484 -0.0808 -0.11291 -0.14533 -0.17748 -0.20962 -0.24178 -0.27419 -0.30607 -0.33849 -0.37037 -0.40253 -0.43441 m -96.6860045,0 h -0.43438 -0.40253 -0.37037 -0.33849 -0.30608 -0.27419 -0.24177 -0.20963 -0.17748 -0.14532 -0.11292 -0.0808 -0.0483 -0.0159 M 99.211606,4.6265155 c 0.14716,-1.03557 0.31052,-1.91077 0.4859,-2.62724 0.0876,-0.35766 0.178,-0.67431 0.26896,-0.9424 0.091,-0.26784 0.182714,-0.48786 0.274724,-0.66 m -1.029584,4.22964 -0.23916,0.27224 -0.23185,0.27831 -0.22478,0.28415 -0.21721,0.28981 -0.20989,0.29527 -0.20205,0.30057 -0.1942,0.30565 -0.18636,0.31052 -0.17827,0.31519 -0.16989,0.31964 -0.1618,0.32389 -0.15343,0.32795 -0.1448,0.33176 -0.13618,0.33536 m 0,10.2352805 -1.33356,-0.70394 -1.13465,-0.71642 -0.9326,-0.72684 -0.72821,-0.73524 -0.52171,-0.74155 -0.31366,-0.74577 -0.10455,-0.74789 0.10455,-0.74787 0.31366,-0.74577 0.52171,-0.74155 0.72821,-0.73524 0.9326,-0.72685 1.13465,-0.7164105 1.33356,-0.70394 m 2.64987,14.5255905 -0.23916,-0.27224 -0.23185,-0.27831 -0.22478,-0.28415 -0.21721,-0.28981 -0.20989,-0.29527 -0.20205,-0.30057 -0.1942,-0.30565 -0.18636,-0.31052 -0.17827,-0.31519 -0.16989,-0.31964 -0.1618,-0.32389 -0.15343,-0.32795 -0.1448,-0.33176 -0.13618,-0.33536 m 2.64987,4.29031 c 0.14716,1.03557 0.31052,1.91077 0.4859,2.62724 0.0876,0.35766 0.178,0.6743 0.26896,0.9424 0.091,0.26784 0.182714,0.48785 0.274724,0.66 m -10.287664,0 H 100.24119 M 89.953526,0.3968755 v 0.8968 1.34846 1.75235 2.09409 2.36159 2.5453605 2.63893 2.63895 2.54536 2.36158 2.0941 1.75235 1.34846 0.8968 m -86.3983405,0 H 13.842836 m -10.2876505,0 c 0.18427,-0.34559 0.36541,-0.87682 0.54079,-1.59034 0.0876,-0.3572 0.17356,-0.76088 0.25563,-1.20183 0.0818,-0.44047 0.15945,-0.91963 0.23315,-1.43748 m 2.64987,-4.2903 -0.13617,0.33535 -0.14481,0.33176 -0.15343,0.32796 -0.16179,0.32389 -0.1699,0.31964 -0.17826,0.31519 -0.18637,0.31052 -0.1942,0.30565 -0.20205,0.30056 -0.20989,0.29528 -0.2172,0.28981 -0.22479,0.28414 -0.23184,0.27831 -0.23917,0.27224 m 2.64987,-14.5255805 1.33356,0.70394 1.13465,0.7164105 0.9326105,0.72685 0.7282,0.73524 0.52172,0.74155 0.31365,0.74577 0.10455,0.74787 -0.10455,0.74789 -0.31365,0.74577 -0.52172,0.74155 -0.7282,0.73524 -0.9326105,0.72684 -1.13465,0.71642 -1.33356,0.70394 m 0,-10.2352805 -0.13617,-0.33536 -0.14481,-0.33176 -0.15343,-0.32795 -0.16179,-0.32389 -0.1699,-0.31964 -0.17826,-0.31519 -0.18637,-0.31052 -0.1942,-0.30565 -0.20205,-0.30057 -0.20989,-0.29527 -0.2172,-0.28981 -0.22479,-0.28415 -0.23184,-0.27831 -0.23917,-0.27224 m -1.02957,-4.22964 c 0.18427,0.34559 0.36541,0.87681 0.54079,1.59034 0.0876,0.35719 0.17356,0.76087 0.25563,1.20182 0.0818,0.44048 0.15945,0.91963 0.23315,1.43748 M 13.842836,27.672056 v -0.8968 -1.34846 -1.75235 -2.0941 -2.36158 -2.54536 -2.63895 -2.63893 -2.5453605 -2.36159 -2.09409 -1.75235 -1.34846 -0.8968 m -13.4459005,0 h 0.0159 0.0483 0.0808 0.11292 0.14532 0.17748 0.20963 0.24177 0.27419 0.30608 0.33849 0.37037 0.40253 0.43441 m 96.6860045,0 h 0.43441 0.40253 0.37037 0.33849 0.30607 0.27419 0.24178 0.20962 0.17748 0.14533 0.11291 0.0808 0.0484 0.0159 m -13.445914,0 h 10.287664 m -26.976434,0 h 16.68877 m -59.42192,0 h 42.73315 m -59.42192,0 h 16.68877 m -26.9764205,0 H 13.842776 M 0.3968755,27.672056 V 0.3968755 M 103.39938,27.672056 V 0.3968755" />
  <path
     style="fill:#a0a0a0;stroke:none;stroke-width:0.375551"
     d="M 54.047057,53.114819 V 3.3542556 H 196.19327 338.33948 V 53.114819 102.87538 H 196.19327 54.047057 Z"
     id="path1102"
     transform="scale(0.26458333)" />
  <path
     style="fill:#a0a0a0;stroke:none;stroke-width:0.375551"
     d="M 341.71945,53.114819 V 3.3542556 h 17.23861 17.23861 l -0.53954,1.7838693 c -0.29674,0.9811281 -0.93884,3.9417712 -1.42688,6.5792071 -0.48804,2.637436 -1.16502,5.172408 -1.50439,5.633271 -0.33937,0.460864 -1.6248,2.189919 -2.85651,3.842345 -1.23171,1.652426 -3.18372,4.888057 -4.33779,7.19029 l -2.09831,4.185878 -3.05231,1.635169 c -3.49169,1.870557 -8.03837,5.013602 -10.15826,7.022247 -5.64559,5.349321 -7.41718,11.577383 -4.84667,17.038592 2.27047,4.823781 6.7547,8.958332 14.4282,13.303101 l 3.75817,2.127893 1.45322,3.058773 c 1.62685,3.424229 4.52974,8.016806 6.929,10.962154 1.34049,1.64558 1.63334,2.311362 1.84687,4.198744 0.23937,2.115718 1.75053,8.871041 2.30464,10.302381 0.24006,0.62009 -0.72357,0.65721 -17.06112,0.65721 h -17.31554 z"
     id="path1104"
     transform="scale(0.26458333)" />
  <path
     style="fill:#a0a0a0;stroke:none;stroke-width:0.375551"
     d="m 16.26663,102.21817 c 0.600725,-1.96537 1.322872,-5.213133 1.899732,-8.543798 0.357743,-2.065532 0.761085,-3.949606 0.896315,-4.186827 0.135231,-0.237221 1.384452,-1.927202 2.776049,-3.755514 1.391596,-1.828312 3.504072,-5.283682 4.694392,-7.678604 l 2.164218,-4.354402 2.62886,-1.43888 C 36.2805,69.548457 39.215923,67.422806 42.438,64.21367 c 4.367188,-4.349647 5.396072,-6.463258 5.405547,-11.104477 0.0063,-3.102055 -0.100663,-3.604295 -1.277603,-5.997079 C 44.334154,42.574758 38.120655,37.225501 31.007873,33.71803 29.633801,33.040444 28.50956,32.328795 28.50956,32.136588 28.50956,30.74329 23.03903,21.560364 20.155769,18.11377 19.139093,16.898456 18.777144,16.061362 18.577532,14.463721 18.306377,12.293467 16.746319,5.1436896 16.296885,4.0114706 16.050702,3.3912822 17.011538,3.3542556 33.351549,3.3542556 H 50.667094 V 53.114819 102.87538 H 33.366421 c -16.30299,0 -17.289088,-0.0379 -17.099791,-0.65721 z"
     id="path1106"
     transform="scale(0.26458333)" />
  <path
     style="fill:#a0a0a0;stroke:none;stroke-width:0.375551"
     d="M 3.3476151,53.114819 V 3.3311375 l 4.6005049,0.1054469 4.600505,0.105447 0.860958,3.0044113 c 0.473528,1.6524263 1.19177,4.9224343 1.596094,7.2666843 0.694117,4.024452 0.735135,6.218045 0.735135,39.31401 v 35.051739 l -0.924555,5.001057 c -0.508506,2.75058 -1.233413,6.015045 -1.610905,7.254367 l -0.686349,2.25331 -4.585694,0.10544 -4.5856939,0.10545 z"
     id="path1108"
     transform="scale(0.26458333)" />
  <path
     style="fill:#a0a0a0;stroke:none;stroke-width:0.375551"
     d="m 19.128811,52.908266 0.008,-30.588664 1.723122,2.62886 c 0.947718,1.445873 2.380586,3.971906 3.184152,5.613406 l 1.461028,2.984546 V 53.01175 72.477086 l -1.289022,2.712063 c -1.173462,2.468928 -3.928665,7.072798 -4.758308,7.951006 -0.199182,0.210842 -0.333757,-12.154951 -0.329008,-30.231889 z"
     id="path1110"
     transform="scale(0.26458333)" />
  <path
     style="fill:#a0a0a0;stroke:none;stroke-width:0.375551"
     d="M 28.885112,52.951392 V 36.371119 l 1.783869,1.022428 c 3.749009,2.148751 7.5035,4.901282 9.714558,7.122036 6.017555,6.043942 5.718288,11.642489 -0.955363,17.872546 -2.579112,2.407679 -7.986142,6.179247 -9.885849,6.895682 -0.619738,0.233721 -0.657215,-0.697629 -0.657215,-16.332419 z"
     id="path1112"
     transform="scale(0.26458333)" />
  <path
     style="fill:#a0a0a0;stroke:none;stroke-width:0.375551"
     d="m 360.87257,68.224354 c -4.65985,-2.828429 -5.57766,-3.524203 -8.53093,-6.467118 -3.53316,-3.520771 -4.66702,-5.651803 -4.66702,-8.771382 0,-3.612736 2.28154,-7.177432 6.98013,-10.905795 2.88085,-2.285976 8.00921,-5.513277 8.29954,-5.222944 0.0988,0.09881 0.13559,7.478949 0.0817,16.400312 l -0.0979,16.220662 z"
     id="path1114"
     transform="scale(0.26458333)" />
  <path
     style="fill:#a0a0a0;stroke:none;stroke-width:0.375551"
     d="m 371.12327,80.63318 c -1.07509,-1.709134 -2.55382,-4.406179 -3.28607,-5.993429 l -1.33136,-2.885909 V 53.018287 34.282733 l 1.65506,-3.400506 c 0.91028,-1.870278 2.38902,-4.561982 3.28608,-5.981565 l 1.63101,-2.58106 0.0981,15.519548 c 0.0539,8.53575 0.0539,22.355497 0,30.710547 l -0.0981,15.191002 z"
     id="path1116"
     transform="scale(0.26458333)" />
  <path
     style="fill:#a0a0a0;stroke:none;stroke-width:0.375551"
     d="m 379.72149,102.21817 c -0.52468,-1.04294 -1.46973,-4.822966 -2.30512,-9.220076 -0.74338,-3.912753 -0.77064,-5.32207 -0.77064,-39.838716 0,-39.068796 -0.0405,-38.227374 2.24982,-46.7068231 l 0.83687,-3.0982993 h 4.65325 4.65325 V 53.114819 102.87538 h -4.4934 c -3.90311,0 -4.53684,-0.0863 -4.82403,-0.65721 z"
     id="path1118"
     transform="scale(0.26458333)" />
</svg>
